<svg xmlns="http://www.w3.org/2000/svg" width="29.285" height="27.334" viewBox="0 0 29.285 27.334">
  <g id="Group_103623" data-name="Group 103623" transform="translate(-238 -1590.796)">
    <path id="noun-delivery-3677692" d="M94.278,34.986a6.851,6.851,0,0,0-6.839,6.833v6.836a.976.976,0,1,0,1.952,0V46.583A6.812,6.812,0,0,0,101.029,42.8h3a.962.962,0,0,1,.982.973v12.69H90.373a.964.964,0,0,1-.982-.973V52.555a.976.976,0,1,0-1.952,0v2.932a2.943,2.943,0,0,0,2.934,2.925h1.156a2.861,2.861,0,0,0-.183.98,2.929,2.929,0,0,0,5.857,0,2.869,2.869,0,0,0-.183-.98h10.132a2.87,2.87,0,0,0-.183.98,2.929,2.929,0,1,0,5.857,0,2.86,2.86,0,0,0-.185-.98H113.8a2.937,2.937,0,0,0,2.925-2.925V51.573a2.937,2.937,0,0,0-2.924-2.925h-.137l-1.146-2.284a2.942,2.942,0,0,0-2.623-1.615h-2.925v-.98a2.945,2.945,0,0,0-2.934-2.924h-3a6.842,6.842,0,0,0-6.753-5.857Zm0,1.952a4.863,4.863,0,1,1-3.459,1.423A4.881,4.881,0,0,1,94.278,36.938Zm-.015,1.939a.976.976,0,0,0-.965.987v1.952a.976.976,0,0,0,.98.98H96.23a.976.976,0,1,0,0-1.952h-.98v-.98a.976.976,0,0,0-.987-.987ZM106.968,46.7h2.925a.98.98,0,0,1,.879.539l1.413,2.818a.976.976,0,0,0,.873.539h.743a.961.961,0,0,1,.98.973v3.914a.961.961,0,0,1-.98.972h-6.833ZM94.277,58.412a.976.976,0,1,1-.98.98.962.962,0,0,1,.98-.98Zm15.615,0a.976.976,0,1,1-.976.976.976.976,0,0,1,.976-.976Z" transform="translate(150.561 1555.81)" fill="#fff"/>
  </g>
</svg>
