<svg id="Group_26359" data-name="Group 26359" xmlns="http://www.w3.org/2000/svg" xmlns:xlink="http://www.w3.org/1999/xlink" width="101.956" height="19.903" viewBox="0 0 101.956 19.903">
  <defs>
    <clipPath id="clip-path">
      <rect id="Rectangle_1723" data-name="Rectangle 1723" width="101.956" height="19.903" fill="none"/>
    </clipPath>
  </defs>
  <g id="Group_26358" data-name="Group 26358" clip-path="url(#clip-path)">
    <path id="Path_25198" data-name="Path 25198" d="M9.044,0c-.069,1.185-.137,2.37-.208,3.593L7.06,3.531,6.938,1.315H4.174v5.3h1.2l.28-1.166H6.885V9.089H5.673l-.3-1.2H4.179v5.622H6.957l.269-2.431,1.869.062c.049,1.25.1,2.476.145,3.725H.15v-1.3l1.276-.22V1.448L0,1.292V0Z" fill="#e50019" fill-rule="evenodd"/>
    <path id="Path_25199" data-name="Path 25199" d="M302.329,47.23l.068-1.021.964-.213V33.314l-1.144-.173V32.082l3.025-.42.317,1.133a1.276,1.276,0,0,0,.122-.109,3.075,3.075,0,0,1,2.777-1.037,2.791,2.791,0,0,1,2.491,2.221,7.867,7.867,0,0,1,.324,1.7,13.1,13.1,0,0,1-.118,3.521,6.307,6.307,0,0,1-.374,1.264,3.142,3.142,0,0,1-2.806,1.989,3.9,3.9,0,0,1-1.962-.285,1.084,1.084,0,0,0-.148-.039V46l1.028.212c-.022.336-.045.668-.069,1.021Zm3.518-6.629a3.157,3.157,0,0,0,2.375.082.4.4,0,0,0,.286-.3c.1-.394.215-.785.273-1.185a16.9,16.9,0,0,0,.061-3.657,5.534,5.534,0,0,0-.232-1.228,1.39,1.39,0,0,0-1.75-1.048c-.044.007-.088.021-.132.03a1.039,1.039,0,0,0-.88,1.062q0,2.97,0,5.94Z" transform="translate(-261.116 -27.327)" fill="#e50019" fill-rule="evenodd"/>
    <path id="Path_25200" data-name="Path 25200" d="M495.842,40.905l1.065.213c-.02.368-.038.713-.058,1.078h-3.462c0-.078-.011-.153-.011-.229,0-2.3.007-4.6-.006-6.9a3.147,3.147,0,0,0-.168-.925.957.957,0,0,0-.775-.637,1.69,1.69,0,0,0-1.034.088.754.754,0,0,0-.518.689c-.006,2.176,0,4.351,0,6.527a.581.581,0,0,0,.025.1l1.018.208c-.022.356-.043.71-.066,1.082H487.39V41.122l1-.214V33.425l-1.138-.13v-1.1l2.942-.421.263.958c.223-.168.453-.368.708-.53a3.374,3.374,0,0,1,3.09-.335,2.341,2.341,0,0,1,1.528,1.964,4.767,4.767,0,0,1,.061.778q.008,2.958,0,5.915Z" transform="translate(-420.981 -27.334)" fill="#e50019" fill-rule="evenodd"/>
    <path id="Path_25201" data-name="Path 25201" d="M76.862,40.98l1.026.208c-.022.366-.043.712-.064,1.079H73.316c.019-.355.037-.7.057-1.075l.956-.208c.071-.243.089-7.107.014-7.489l-1.135-.127v-1.1l2.949-.423.267.98c.083-.073.176-.159.273-.241a3.466,3.466,0,0,1,3.21-.746,2.348,2.348,0,0,1,1.825,1.973,4.159,4.159,0,0,1,.073.81c.006,1.982,0,3.965,0,5.948v.409l1.06.208c-.009.181-.021.357-.025.532s0,.357,0,.553H79.36v-.393q0-3.263,0-6.526a5.169,5.169,0,0,0-.062-.777,1.1,1.1,0,0,0-1.057-1.017,1.254,1.254,0,0,0-1.208.365.773.773,0,0,0-.188.523c.008,1.654,0,3.308,0,4.962,0,.408,0,.816,0,1.224,0,.111.01.222.016.349" transform="translate(-63.252 -27.405)" fill="#e50019" fill-rule="evenodd"/>
    <path id="Path_25202" data-name="Path 25202" d="M627.4,33.407l-1.144-.113v-.971l3.366-.384a3.906,3.906,0,0,1,.283,1.235c-.01,2.527-.005,5.053-.005,7.58v.409l1.046.215-.11,1.076h-2.9l-.273-.836c-.095.074-.166.122-.228.179a3.427,3.427,0,0,1-3.781.481,2.427,2.427,0,0,1-1.353-1.881,5,5,0,0,1-.07-.844c-.006-1.9,0-3.807,0-5.711v-.427l-1.147-.124v-.967l3.351-.389a4.67,4.67,0,0,1,.255,1.12q-.008,2.991,0,5.983a6.286,6.286,0,0,0,.053.812,1.249,1.249,0,0,0,1.3,1.178,3.086,3.086,0,0,0,.769-.108,1.08,1.08,0,0,0,.623-.815q0-3.3,0-6.594a.553.553,0,0,0-.032-.1" transform="translate(-536.617 -27.593)" fill="#e50019" fill-rule="evenodd"/>
    <path id="Path_25203" data-name="Path 25203" d="M245.125,37.531a3.824,3.824,0,0,0,.582,2.257,1.976,1.976,0,0,0,1.689.911,4.735,4.735,0,0,0,1.948-.387c.082-.035.166-.065.28-.11l.423.968a6.622,6.622,0,0,1-.553.371,5.083,5.083,0,0,1-3.965.507A3.837,3.837,0,0,1,243.1,39.83a7.172,7.172,0,0,1-.571-3.716,6.611,6.611,0,0,1,.568-2.26,3.714,3.714,0,0,1,2.675-2.247,3.453,3.453,0,0,1,3.315.808,4.308,4.308,0,0,1,1.086,1.968,8.314,8.314,0,0,1,.3,2.315,2.758,2.758,0,0,1-.232.77l-5.117.063m3.09-1.338c-.027-.315-.043-.573-.074-.83a4.594,4.594,0,0,0-.5-1.749,1.154,1.154,0,0,0-1.5-.571.779.779,0,0,0-.525.477,7.846,7.846,0,0,0-.548,2.607,1.048,1.048,0,0,0,.038.21l3.1-.145" transform="translate(-209.515 -27.212)" fill="#e50019" fill-rule="evenodd"/>
    <path id="Path_25204" data-name="Path 25204" d="M568.483,37.463l-5.114.062a3.453,3.453,0,0,0,.085,1.049,3.014,3.014,0,0,0,.636,1.405,1.934,1.934,0,0,0,1.48.713,4.5,4.5,0,0,0,1.89-.339c.124-.051.25-.1.4-.156l.422.982c-.056.037-.112.072-.168.111a5.16,5.16,0,0,1-3.609.912,3.816,3.816,0,0,1-3.259-2.582,7.362,7.362,0,0,1,.054-5.693,3.641,3.641,0,0,1,2.688-2.323,3.6,3.6,0,0,1,2.928.467,3.686,3.686,0,0,1,1.307,1.777,7.248,7.248,0,0,1,.469,2.829,3.38,3.38,0,0,1-.213.785m-2.041-1.275a7.691,7.691,0,0,0-.312-2.008,2.836,2.836,0,0,0-.475-.889c-.4-.52-1.649-.415-1.841.3a13.761,13.761,0,0,0-.43,1.736,3.176,3.176,0,0,0-.04,1.006l3.1-.143" transform="translate(-484.448 -27.207)" fill="#e50019" fill-rule="evenodd"/>
    <path id="Path_25205" data-name="Path 25205" d="M434.863,37.421l-5.119.063a3.691,3.691,0,0,0,.736,2.452,1.9,1.9,0,0,0,1.446.712,4.536,4.536,0,0,0,1.924-.335c.124-.051.249-.1.4-.159l.416.963c-.119.088-.229.18-.35.256a5.135,5.135,0,0,1-3.808.727,3.776,3.776,0,0,1-2.713-2.167,6.949,6.949,0,0,1-.655-3.665,6.876,6.876,0,0,1,.584-2.462,3.723,3.723,0,0,1,2-2.028,3.807,3.807,0,0,1,3.344.105,3.413,3.413,0,0,1,1.482,1.758,7.494,7.494,0,0,1,.543,2.987,2.933,2.933,0,0,1-.231.795m-2.027-1.277c-.031-.341-.048-.643-.087-.941a4.355,4.355,0,0,0-.471-1.616,1.171,1.171,0,0,0-1.613-.554.661.661,0,0,0-.378.358,7.01,7.01,0,0,0-.538,2.09c-.03.253-.045.508-.072.812l3.159-.148" transform="translate(-369.029 -27.166)" fill="#e50019" fill-rule="evenodd"/>
    <path id="Path_25206" data-name="Path 25206" d="M193.069,32.548l.23.921c.12-.073.241-.148.364-.22a5.75,5.75,0,0,1,2.319-.708.885.885,0,0,1,.907.418l-.31,2.773-1.667-.069-.183-1.485a2.151,2.151,0,0,0-1.062.371v7.141l1.032.234c-.02.348-.038.682-.058,1.042h-4.453V41.93l.931-.238V34.2l-1.071-.124V32.967l3.022-.419" transform="translate(-164.201 -28.108)" fill="#e50019" fill-rule="evenodd"/>
    <path id="Path_25207" data-name="Path 25207" d="M697.465,42.937c.017-.366.032-.7.048-1.053l.923-.228V34.162l-1.091-.132v-1.1l3.035-.418.224.875a12.864,12.864,0,0,1,1.287-.58,11.247,11.247,0,0,1,1.355-.3.842.842,0,0,1,.953.414l-.309,2.764-1.663-.062c-.064-.509-.126-1-.194-1.54l-1.048.365v7.2l1.03.234c-.022.35-.044.694-.067,1.051Z" transform="translate(-602.507 -28.069)" fill="#e50019" fill-rule="evenodd"/>
    <path id="Path_25208" data-name="Path 25208" d="M379.337,34.116l-1.061.39v7.186l1.052.235-.087,1.044H374.8V41.932l.944-.239V34.2l-1.085-.125v-1.1l3.013-.422.256.9c.292-.153.578-.313.873-.453a5.828,5.828,0,0,1,1.735-.443.921.921,0,0,1,.968.4l-.3,2.777-1.67-.061c-.063-.51-.122-.988-.191-1.55" transform="translate(-323.704 -28.108)" fill="#e50019" fill-rule="evenodd"/>
    <path id="Path_25209" data-name="Path 25209" d="M147.227,18.059v2.107h1.853l-.116,1.323-1.665.19a2.2,2.2,0,0,0-.033.269q0,3.04.007,6.08a3.023,3.023,0,0,0,.019.406.767.767,0,0,0,.78.7c.338.01.676,0,1.054,0l.111,1.091a2.128,2.128,0,0,1-.84.282,5.238,5.238,0,0,1-1.889.055,1.965,1.965,0,0,1-1.711-1.794,5.341,5.341,0,0,1-.025-.61q0-3.057,0-6.114c0-.121-.016-.242-.025-.368l-1.17-.2c.019-.422.038-.835.058-1.29l1.318-.064.588-1.986,1.689-.087" transform="translate(-124.048 -15.603)" fill="#e50019" fill-rule="evenodd"/>
    <path id="Path_25210" data-name="Path 25210" d="M738.631,99.913a.881.881,0,1,1-.867-.737.806.806,0,0,1,.867.737m-1.479,0a.615.615,0,1,0,.607-.557.574.574,0,0,0-.607.557m.5.347h-.24v-.682a2.434,2.434,0,0,1,.343-.021.652.652,0,0,1,.313.052.171.171,0,0,1,.083.15c0,.069-.073.129-.181.154v.009a.215.215,0,0,1,.161.176.657.657,0,0,0,.054.163h-.269a.38.38,0,0,1-.054-.146.118.118,0,0,0-.132-.1h-.078Zm.01-.39h.069c.088,0,.147-.03.147-.081s-.054-.086-.137-.086c-.029,0-.059,0-.078,0Z" transform="translate(-636.675 -85.688)" fill="#e50019"/>
  </g>
</svg>
