<svg xmlns="http://www.w3.org/2000/svg" width="173.741" height="9.708" viewBox="0 0 173.741 9.708">
  <g id="Group_104760" data-name="Group 104760" transform="translate(3385 -627.584)">
    <g id="Group_104758" data-name="Group 104758" transform="translate(-3268.304 627.584)">
      <path id="Path_75231" data-name="Path 75231" d="M479.589,304.84l.736,1.048c.512.731,1.033,1.455,1.531,2.2a1.548,1.548,0,0,0,1.741.682.667.667,0,0,0,.6-.69q-.012-3.519-.048-7.037a.744.744,0,0,0-.758-.8,2.311,2.311,0,0,1-.3-.025c-.059-.015-.107-.076-.16-.116a1.124,1.124,0,0,1,.173-.145.327.327,0,0,1,.147-.008c1.427,0,2.856-.026,4.282.021a4.285,4.285,0,0,1,3.358,1.494,5.109,5.109,0,0,1,.144,5.978,3.746,3.746,0,0,1-2.506,1.475,23.752,23.752,0,0,1-2.889.173c-1.687.029-3.375.008-5.062.024a.749.749,0,0,1-.716-.343c-.818-1.2-1.654-2.38-2.494-3.561a.633.633,0,0,0-.339-.242c-.255-.057-.417.024-.41.348.019.831,0,1.664.012,2.5.009.727.19.91.906,1.009a1.1,1.1,0,0,1,.319.164.943.943,0,0,1-.31.125q-1.936.018-3.871.011a1.2,1.2,0,0,1-.37-.133,1.305,1.305,0,0,1,.333-.142c.633-.079.858-.293.856-.942q-.011-3.389-.055-6.777c-.008-.633-.226-.825-.858-.877a1.181,1.181,0,0,1-.332-.137,1,1,0,0,1,.336-.136c1.749,0,3.5-.012,5.248.037a2.729,2.729,0,0,1,1.965.755,2.379,2.379,0,0,1-.939,3.949,2.674,2.674,0,0,0-.276.125m6.755-4.263c0,1.372-.005,2.724,0,4.076q.009,1.638.045,3.276c.01.427.138.538.565.579a1.965,1.965,0,0,0,2.038-1.125,6.581,6.581,0,0,0,.439-3.863,5.944,5.944,0,0,0-.543-1.8,2.131,2.131,0,0,0-2.546-1.145m-9.736,1.865h.016c0,.545.014,1.091-.006,1.636-.01.29.107.375.372.344.368-.042.74-.057,1.106-.116a1.166,1.166,0,0,0,1.036-.891,4.794,4.794,0,0,0,.091-1.607,1.357,1.357,0,0,0-1.126-1.194,9.336,9.336,0,0,0-1.217-.1c-.2-.013-.282.082-.277.292.012.545,0,1.09,0,1.636" transform="translate(-442.368 -299.706)" fill="#ffa95a"/>
      <path id="Path_75232" data-name="Path 75232" d="M184.526,306.078c.227-.594.434-1.119.629-1.648q.515-1.4,1.017-2.8a1.652,1.652,0,0,0,.088-.361c.059-.495-.1-.706-.587-.814a1.038,1.038,0,0,1-.277-.166c.091-.042.182-.119.274-.121.68-.01,1.36-.006,2.04-.006l.06.1c-.079.074-.162.145-.237.223-.2.206-.485.381-.58.628-.749,1.943-1.46,3.9-2.187,5.854q-.447,1.2-.915,2.392a1.011,1.011,0,0,1-.2.242c-.078-.082-.191-.15-.228-.247-.644-1.678-1.28-3.359-1.917-5.039-.068-.18-.139-.358-.251-.645-.232.519-.423.928-.6,1.343-.612,1.45-1.215,2.9-1.831,4.351-.041.1-.158.162-.24.242a1.29,1.29,0,0,1-.243-.294c-1.068-2.617-2.121-5.24-3.2-7.854-.168-.41-.3-.887-.837-1.015-.053-.013-.081-.128-.121-.2a.826.826,0,0,1,.255-.093c.968-.007,1.936-.005,2.9,0,.2,0,.4,0,.6.015.066.007.125.082.187.126-.047.049-.085.121-.142.144-.707.282-.754.336-.473,1.051.617,1.568,1.262,3.124,1.9,4.684a1.445,1.445,0,0,0,.119.178c.1-.239.182-.425.26-.612.349-.835.708-1.666,1.038-2.509a.9.9,0,0,0,.007-.566c-.143-.434-.331-.854-.509-1.276-.2-.486-.462-.914-1.073-.948-.056,0-.106-.1-.159-.158.066-.04.131-.111.2-.114.3-.016.6-.015.893-.015.968,0,1.936,0,2.9.008a1.16,1.16,0,0,1,.365.139,1.351,1.351,0,0,1-.332.147c-.563.083-.711.273-.515.8.563,1.51,1.147,3.013,1.726,4.517a2.3,2.3,0,0,0,.193.309" transform="translate(-165.576 -299.905)" fill="#ffa95a"/>
      <path id="Path_75238" data-name="Path 75238" d="M63.583,296.776c.291.608.55,1.123.785,1.648.825,1.845,1.638,3.7,2.463,5.54.222.5.471.982.709,1.472a1,1,0,0,0,.723.579c.069.015.118.124.177.19-.067.041-.134.116-.2.117q-2.01.019-4.02.017c-.075,0-.149-.085-.224-.131.082-.052.168-.152.246-.147.748.049,1.044-.238.627-1.07a10.065,10.065,0,0,1-.43-.988.407.407,0,0,0-.452-.29q-1.322.019-2.643.016a.4.4,0,0,0-.444.3c-.112.327-.279.636-.389.964-.192.578.017.9.612,1.025a3.009,3.009,0,0,1,.533.225,2.924,2.924,0,0,1-.563.123c-.732.016-1.464.014-2.2.008a1.031,1.031,0,0,1-.292-.094c.076-.08.137-.2.23-.233a2.445,2.445,0,0,0,1.234-1.514c1.1-2.427,2.179-4.866,3.268-7.3.058-.129.134-.25.248-.459m-2.277,6.361h2.745l-1.323-2.94-.115.016-1.308,2.924" transform="translate(-58.603 -296.776)" fill="#ffa95a"/>
      <path id="Path_75241" data-name="Path 75241" d="M740.3,306.289v-3.406l.1-.024a2.95,2.95,0,0,1,.143.342,3.381,3.381,0,0,0,2.029,2.449,1.893,1.893,0,0,0,1.817-.148,1.165,1.165,0,0,0,.258-1.8,8.171,8.171,0,0,0-1.41-1,20.477,20.477,0,0,1-2.022-1.237,2.581,2.581,0,0,1,.711-4.486,3.172,3.172,0,0,1,2.5.167c.112.053.223.109.339.152.5.184.6.136.809-.357.023-.056.05-.111.075-.166l.148.058v3.111a1.684,1.684,0,0,1-.222-.347,3.216,3.216,0,0,0-1.295-1.848,1.846,1.846,0,0,0-2.355.08.961.961,0,0,0,.031,1.427,14.517,14.517,0,0,0,1.873,1.182,6.362,6.362,0,0,1,2.124,1.525,2.706,2.706,0,0,1-1.058,4.053,3.532,3.532,0,0,1-2.786.06c-.15-.059-.3-.123-.449-.179a.82.82,0,0,0-1.083.285.736.736,0,0,1-.138.117c-.016.011-.047,0-.134-.006" transform="translate(-689.43 -296.774)" fill="#ffa95a"/>
      <path id="Path_75242" data-name="Path 75242" d="M344.243,296.941c.462,1.036.886,1.983,1.306,2.931.784,1.767,1.56,3.538,2.351,5.3a1.422,1.422,0,0,0,.794.841,1.04,1.04,0,0,1,.263.212.989.989,0,0,1-.313.121c-1.2.017-2.407.022-3.61.029a.72.72,0,0,1-.221-.014.655.655,0,0,1-.163-.116c.06-.047.113-.125.18-.137.961-.184.995-.243.62-1.151a4.4,4.4,0,0,1-.254-.617c-.126-.521-.466-.6-.942-.575-.73.038-1.464,0-2.2.024a.538.538,0,0,0-.387.234,4.729,4.729,0,0,0-.4.957c-.194.673.013.977.7,1.1.129.023.257.05.386.075l.018.106a.85.85,0,0,1-.279.118q-1.228.029-2.456.03a.728.728,0,0,1-.249-.1c.062-.078.11-.2.189-.228a1.754,1.754,0,0,0,1.059-1.086c.814-1.821,1.6-3.655,2.4-5.483.334-.761.678-1.517,1.02-2.273a3.118,3.118,0,0,1,.188-.294m.436,6.256-1.272-2.9-.113-.016-1.286,2.911Z" transform="translate(-318.469 -296.929)" fill="#ffa95a"/>
    </g>
    <g id="Group_104757" data-name="Group 104757" transform="translate(-3337.21 627.875)">
      <path id="Path_75233" data-name="Path 75233" d="M.036,134.987l.437-.059c.59-.078.8-.3.8-.9,0-1.6-.011-3.2-.015-4.8,0-.626.012-1.251,0-1.877s-.245-.86-.865-.927a2.7,2.7,0,0,1-.393-.1l.01-.117a1.178,1.178,0,0,1,.253-.052c1.767.026,3.535.031,5.3.1a2.4,2.4,0,0,1,2.3,1.564,1.756,1.756,0,0,1-.924,2.266c-.242.122-.5.22-.834.369l.641.225a2.114,2.114,0,0,1,1.642,2.285,2.3,2.3,0,0,1-1.8,2.013,6.191,6.191,0,0,1-1.559.261c-1.551.023-3.1-.011-4.654-.028a1.942,1.942,0,0,1-.354-.069Zm3.378-2.435h.012c0,.481,0,.962,0,1.444a.625.625,0,0,0,.632.675,1.744,1.744,0,0,0,1.9-1.412A1.916,1.916,0,0,0,4.916,131a6.332,6.332,0,0,0-1.2-.217c-.239-.036-.311.1-.306.323.01.481,0,.962,0,1.443m-.01-4.125h0q0,.415,0,.829c0,1.043.063,1.092,1.093.858l.035-.008a1.434,1.434,0,0,0,1.109-1.028,1.8,1.8,0,0,0-.31-1.765,2.128,2.128,0,0,0-1.642-.586c-.22,0-.3.074-.293.293.011.469,0,.938,0,1.406" transform="translate(0 -126.144)" fill="#ffa95a"/>
      <path id="Path_75234" data-name="Path 75234" d="M575.443,136.554c-.022.23-.037.461-.067.689-.075.584-.173,1.166-.229,1.752-.029.3-.164.372-.441.37-1.539-.013-3.079-.01-4.618-.016-.721,0-1.442-.012-2.163-.023a1.818,1.818,0,0,1-.285-.049l-.007-.112a2.1,2.1,0,0,1,.3-.081c.7-.084.87-.239.871-.925q.007-3.265-.016-6.531a.774.774,0,0,0-.8-.863,1.539,1.539,0,0,1-.25-.021.167.167,0,0,1-.1-.116c0-.041.057-.1.1-.119a.439.439,0,0,1,.177-.019c2.164.006,4.329.021,6.493.014.374,0,.468.128.449.485-.034.636-.014,1.274-.023,1.912a1.35,1.35,0,0,1-.052.256l-.1.02a2.147,2.147,0,0,1-.172-.346,2.08,2.08,0,0,0-2.317-1.766c-.337-.006-.674,0-1.01-.007-.193-.005-.284.057-.282.267q.01,1.479,0,2.959c0,.246.127.306.341.3a1.409,1.409,0,0,0,1.335-1.163c.055-.209.086-.424.147-.631a.957.957,0,0,1,.155-.235.791.791,0,0,1,.115.265c.014.757.017,1.515.018,2.273,0,.6,0,1.2-.016,1.8,0,.086-.08.17-.122.255a1.31,1.31,0,0,1-.148-.245c-.116-.339-.2-.692-.334-1.023a1.233,1.233,0,0,0-1.221-.73c-.186-.009-.268.057-.266.243.013.926.019,1.852.039,2.777.007.349.2.6.549.592a10.177,10.177,0,0,0,1.993-.183,2.431,2.431,0,0,0,1.662-1.755,3.16,3.16,0,0,1,.157-.32l.139.044" transform="translate(-526.655 -130.169)" fill="#ffa95a"/>
      <path id="Path_75235" data-name="Path 75235" d="M434.655,138.77a3.8,3.8,0,0,1,.427-.145c.629-.136.822-.336.825-.984.008-2.081,0-4.163-.006-6.245a1.291,1.291,0,0,0-.94-1.023,2.757,2.757,0,0,1-.333-.14l.03-.127c.111-.01.222-.029.334-.029.794,0,1.588.012,2.381,0a.622.622,0,0,1,.549.262q1.879,2.395,3.769,4.78l.22.276.1-.013c0-.242,0-.485,0-.728-.009-1.035-.012-2.069-.029-3.1-.013-.8-.217-1.024-1.009-1.189-.072-.015-.13-.1-.194-.151.064-.04.128-.113.192-.113.806,0,1.612,0,2.418.015.069,0,.137.093.2.143-.047.044-.087.108-.143.128-.911.336-.971.4-.973,1.4,0,1.54.011,3.08.017,4.62q0,1.209,0,2.418a.721.721,0,0,1-.086.342c-1.089-1.13-2.007-2.39-2.994-3.59s-1.948-2.422-2.92-3.635l-.1.024c0,.256,0,.513,0,.769q.009,2.274.02,4.548a3.682,3.682,0,0,0,.053.61c.078.443.4.677,1,.786.094.017.175.108.261.165a.846.846,0,0,1-.272.106c-.923.008-1.846,0-2.768,0l-.038-.183" transform="translate(-403.253 -129.787)" fill="#ffa95a"/>
      <path id="Path_75236" data-name="Path 75236" d="M127.328,128.138H131.9l.04.094a.854.854,0,0,1-.2.162.81.81,0,0,1-.25.015c-.616.029-.817.218-.826.843-.013.926-.009,1.853,0,2.779s.06,1.827.033,2.739c-.041,1.406,1.049,2.024,2.341,1.771,1.07-.21,1.609-.906,1.648-2.221.047-1.6.029-3.2,0-4.8-.011-.762-.256-.985-1-1.106-.082-.013-.151-.1-.226-.158.076-.039.152-.112.228-.112q1.3,0,2.6.024c.07,0,.139.088.208.136-.068.046-.132.124-.205.135-.751.11-.989.337-1,1.1-.022,1.5-.009,3.006-.021,4.51a6.034,6.034,0,0,1-.081.9,2.731,2.731,0,0,1-2.6,2.331,4.791,4.791,0,0,1-2.347-.225,2.681,2.681,0,0,1-1.741-2.691c-.019-1.6-.017-3.2-.026-4.8a3.894,3.894,0,0,0-.022-.432c-.061-.519-.216-.672-.742-.757-.131-.021-.258-.058-.388-.087l.016-.145" transform="translate(-118.121 -127.988)" fill="#ffa95a"/>
      <path id="Path_75237" data-name="Path 75237" d="M273.542,126.116a2.1,2.1,0,0,1,.051.3c.025.781.048,1.562.06,2.343a1.006,1.006,0,0,1-.1.308c-.069-.081-.174-.152-.2-.245a3.113,3.113,0,0,0-1.457-1.935,1.878,1.878,0,0,0-2.182.158.916.916,0,0,0-.073,1.3,10.385,10.385,0,0,0,1.45,1.037,24.006,24.006,0,0,1,2.3,1.459,2.5,2.5,0,0,1-.217,3.938,3.469,3.469,0,0,1-3.362.369c-.17-.059-.335-.132-.506-.191a.72.72,0,0,0-.923.261,1.991,1.991,0,0,1-.3.26v-3.44l.1-.038a1.649,1.649,0,0,1,.142.286,3.69,3.69,0,0,0,1.408,2.157,2.42,2.42,0,0,0,1.774.438,1.328,1.328,0,0,0,1.157-.906,1.142,1.142,0,0,0-.447-1.348,21.144,21.144,0,0,0-1.915-1.135,4.656,4.656,0,0,1-2.01-1.74A2.579,2.579,0,0,1,269.5,126.3a3.176,3.176,0,0,1,2.719.12c.107.054.221.094.332.139.483.2.622.14.829-.333a.94.94,0,0,1,.07-.114h.1" transform="translate(-248.673 -126.054)" fill="#ffa95a"/>
      <path id="Path_75239" data-name="Path 75239" d="M793.268,136.8v-3.316l.117-.022c.049.134.109.266.147.4a3.384,3.384,0,0,0,1.608,2.167,2.114,2.114,0,0,0,1.777.17,1.181,1.181,0,0,0,.847-.988,1.325,1.325,0,0,0-.676-1.307c-.51-.336-1.079-.581-1.594-.911a8.739,8.739,0,0,1-1.653-1.194,2.485,2.485,0,0,1,1.193-4.067,2.948,2.948,0,0,1,2.007.124c.166.071.328.151.5.217.571.223.643.193.9-.354.016-.033.033-.065.084-.163a1.11,1.11,0,0,1,.115.274c.031.841.059,1.682.076,2.523,0,.071-.081.145-.124.217-.057-.064-.144-.119-.166-.193a3.093,3.093,0,0,0-1.29-1.848,1.857,1.857,0,0,0-2.1-.068.919.919,0,0,0-.178,1.461,6.837,6.837,0,0,0,1.205.89c.758.479,1.593.855,2.294,1.4a2.5,2.5,0,0,1-.03,3.9,3.3,3.3,0,0,1-3.434.432c-.18-.065-.367-.112-.544-.185a.656.656,0,0,0-.769.231c-.078.079-.148.166-.222.25l-.087-.047" transform="translate(-735.929 -127.455)" fill="#ffa95a"/>
      <path id="Path_75240" data-name="Path 75240" d="M698.538,128.187a1.315,1.315,0,0,1,.059.242c.029.793.059,1.586.075,2.38a1.157,1.157,0,0,1-.109.348,1.078,1.078,0,0,1-.2-.292,2.955,2.955,0,0,0-1.491-1.9,1.872,1.872,0,0,0-1.363-.177,1.2,1.2,0,0,0-.945.894,1,1,0,0,0,.524,1.1c.653.424,1.354.772,2.018,1.182a7.615,7.615,0,0,1,1.409.987,2.593,2.593,0,0,1-.679,4.08,3.312,3.312,0,0,1-2.654.2,4.273,4.273,0,0,1-.476-.169c-.5-.23-.954-.246-1.288.286-.02.032-.081.038-.193.086v-3.345l.1-.026a2.478,2.478,0,0,1,.139.32,3.516,3.516,0,0,0,1.611,2.212,2.032,2.032,0,0,0,2.149,0,1.168,1.168,0,0,0,.077-1.892,15.178,15.178,0,0,0-1.576-1c-.491-.3-1.017-.551-1.475-.894a2.52,2.52,0,0,1-.28-3.949,2.923,2.923,0,0,1,3.11-.416c.121.052.238.115.361.163.637.248.637.246.982-.352.015-.026.053-.038.112-.078" transform="translate(-643.11 -128.033)" fill="#ffa95a"/>
      <path id="Path_75243" data-name="Path 75243" d="M369.061,138.5h-4.514l-.027-.109a1.11,1.11,0,0,1,.272-.115c.779-.1.918-.216.924-.994.014-1.791,0-3.582-.008-5.373,0-.42.007-.842-.022-1.261a.745.745,0,0,0-.791-.751c-.134-.011-.267-.041-.4-.063l-.012-.109a.86.86,0,0,1,.258-.087q2.055.008,4.11.03c.055,0,.11.028.2.138a1.207,1.207,0,0,1-.287.112c-.729.087-.9.256-.9.981,0,2.151.009,4.3.019,6.454,0,.6.218.835.825.917.127.017.251.05.377.076l-.016.153" transform="translate(-338.172 -129.381)" fill="#ffa95a"/>
    </g>
    <g id="Group_104759" data-name="Group 104759" transform="translate(-3385 627.584)">
      <path id="Path_75244" data-name="Path 75244" d="M401.358,1.87a2.13,2.13,0,0,1-.331.155c-.812.2-.912.286-.914,1.126-.005,2.154.02,4.309.02,6.463a.775.775,0,0,0,.776.888.486.486,0,0,1,.373.258h-4.424l-.028-.135a1.383,1.383,0,0,1,.3-.127c.716-.126.863-.277.865-.972q.007-3.254,0-6.507l-.151-.042-3.252,7.773-.16-.012-3.313-7.773-.151.03c0,.527,0,1.054,0,1.58q.008,2.2.018,4.4c0,1.069.079,1.169,1.1,1.479.062.019.114.069.152.224h-2.885c.026-.117.025-.175.043-.182,1.07-.417,1.075-.417,1.072-1.61q-.006-2.9-.022-5.795c0-.877-.108-1-.968-1.19a2.081,2.081,0,0,1-.29-.134,2.083,2.083,0,0,1,.442-.125c.965,0,1.932-.008,2.9.047.183.011.426.263.512.46.7,1.6,1.368,3.206,2.05,4.81.069.162.166.311.318.592.463-1.118.874-2.1,1.279-3.094.323-.79.626-1.587.966-2.369.067-.154.259-.358.4-.361,1.021-.021,2.042,0,3.063.016.063,0,.124.058.253.122" transform="translate(-375.159 -1.463)" fill="#ffa95a"/>
      <path id="Path_75245" data-name="Path 75245" d="M503.654,2.666a4.308,4.308,0,0,1,.509-.054c2.078.019,4.157.054,6.235.057.445,0,.586.151.569.584-.028.7-.008,1.4-.008,2.093l-.181.038c-.055-.151-.12-.3-.163-.454a2.045,2.045,0,0,0-1.99-1.643c-.425-.033-.854-.017-1.279-.043-.295-.017-.394.112-.393.391,0,.947-.014,1.894.009,2.84,0,.109.2.293.325.3a1.216,1.216,0,0,0,1.236-.852A6.061,6.061,0,0,1,509,4.793V9.432l-.111.024c-.109-.34-.2-.687-.332-1.018a1.342,1.342,0,0,0-1.154-.984c-.3-.026-.458.066-.451.393.017.891.018,1.782.035,2.672.009.454.316.586.707.617,1.591.127,3.088-.291,3.627-2.123.012-.042.071-.07.228-.218-.037.458-.055.792-.094,1.124a10.019,10.019,0,0,0-.152,1.157c0,.553-.258.676-.759.669-2.023-.029-4.046-.022-6.069-.036-.261,0-.522-.053-.813-.085.058-.122.068-.177.089-.183,1.048-.25,1.055-.25,1.058-1.32q.008-3.062,0-6.125c0-.752-.119-.891-.845-1.073a2.453,2.453,0,0,1-.324-.131l.01-.128" transform="translate(-476.863 -2.32)" fill="#ffa95a"/>
      <path id="Path_75246" data-name="Path 75246" d="M591.737,1.777V4.642l-.091.019a12.577,12.577,0,0,0-.665-1.309,2.277,2.277,0,0,0-2.1-1.123,1.3,1.3,0,0,0-1.256.844,1.1,1.1,0,0,0,.584,1.269c.659.441,1.389.776,2.075,1.18A3.742,3.742,0,0,1,592.2,7.433a2.737,2.737,0,0,1-2.489,3.637,5.892,5.892,0,0,1-1.533-.2c-.664-.157-1.327-.678-1.912.282L586.2,11V7.561c.35.684.6,1.254.92,1.777a2.5,2.5,0,0,0,2.845,1.1,1.158,1.158,0,0,0,.52-1.988,6.805,6.805,0,0,0-1.355-.944c-.6-.372-1.248-.666-1.814-1.078a2.564,2.564,0,0,1-.874-3.391,2.861,2.861,0,0,1,3.317-1.28,3.983,3.983,0,0,1,.776.306c.476.268.854.287,1.052-.391l.146.108" transform="translate(-550.159 -1.448)" fill="#ffa95a"/>
      <path id="Path_75247" data-name="Path 75247" d="M271.211,2.515c-.142-.324-.259-.661-.429-.968a1.8,1.8,0,0,0-2.044-.865.511.511,0,0,0-.277.387c0,2.338.019,4.676.037,7.015a.769.769,0,0,0,.71.79.664.664,0,0,1,.433.246h-4.518l-.028-.177c.154-.033.308-.072.463-.1.44-.069.72-.289.719-.765-.008-2.338-.021-4.676-.025-7.015,0-.3-.108-.429-.413-.462A1.794,1.794,0,0,0,263.7,2.015c-.045.147-.111.287-.167.43l-.173-.022c0-.756-.008-1.513.016-2.269,0-.058.236-.157.362-.156q3.618.032,7.235.093c.123,0,.349.109.351.173.025.743.016,1.487.016,2.231l-.134.02" transform="translate(-263.364 0.001)" fill="#ffa95a"/>
      <path id="Path_75248" data-name="Path 75248" d="M347.74,10.08h-4.484c.034-.121.037-.179.054-.184,1.107-.312,1.117-.312,1.116-1.5,0-1.873-.015-3.747-.028-5.62-.009-1.246-.013-1.246-1.136-1.584a12.65,12.65,0,0,1,4.459.026,1.453,1.453,0,0,1-.3.132c-.743.124-.873.243-.872,1q0,3.226.04,6.453c.008.8.155.946.954,1.057a1.108,1.108,0,0,1,.2.066l.005.152" transform="translate(-334.351 -0.898)" fill="#ffa95a"/>
    </g>
  </g>
</svg>
