<svg xmlns="http://www.w3.org/2000/svg" xmlns:xlink="http://www.w3.org/1999/xlink" width="122.885" height="27.538" viewBox="0 0 122.885 27.538">
  <defs>
    <clipPath id="clip-path">
      <rect id="Rectangle_44382" data-name="Rectangle 44382" width="122.885" height="27.538" fill="none"/>
    </clipPath>
  </defs>
  <g id="Group_104486" data-name="Group 104486" clip-path="url(#clip-path)">
    <path id="Path_74655" data-name="Path 74655" d="M429.939,20.91c0,1.632-.018,3.264.012,4.9a1.207,1.207,0,0,1-.5,1.046,13.09,13.09,0,0,1-7.437,2.956c-4.5.386-8.534-.7-11.755-4.025-6.346-6.555-4.4-19.968,6.238-22.533,4.563-1.1,8.783-.353,12.339,2.97.38.355.445.591.063.99A28.981,28.981,0,0,0,426.9,9.488c-.347.449-.523.345-.854.009a8.623,8.623,0,0,0-12.831.589A10.182,10.182,0,0,0,411.852,20.1a8.079,8.079,0,0,0,5.909,5.331,9.41,9.41,0,0,0,7.127-.852,1.059,1.059,0,0,0,.658-1.089c-.051-1.267-.035-2.538-.006-3.807.01-.451-.143-.565-.574-.559-1.684.022-3.369-.009-5.053.02-.482.008-.63-.132-.613-.609.033-.931.023-1.865,0-2.8-.008-.367.1-.49.483-.489q4.82.02,9.64,0c.412,0,.526.124.521.529-.021,1.709-.009,3.419-.009,5.128" transform="translate(-343.395 -2.345)" fill="#023e81"/>
    <path id="Path_74656" data-name="Path 74656" d="M280.654,10.879a7.688,7.688,0,0,1,8.415-1.369c3.09,1.249,4.5,3.837,4.931,7a10.472,10.472,0,0,1-1.7,7.693,7.862,7.862,0,0,1-11.818.949,3.257,3.257,0,0,0-.181,1.35c-.031.408-.162.586-.611.569-.905-.036-1.814-.029-2.72,0-.413.012-.583-.075-.582-.541q.021-12.976,0-25.952c0-.441.121-.571.56-.557,1.01.031,2.022.043,3.031,0,.542-.025.687.123.683.674-.028,3.363-.014,6.727-.014,10.2m0,7.174c0,.8,0,1.6,0,2.4a1.148,1.148,0,0,0,.117.671,4.792,4.792,0,0,0,4.361,2.468,4.369,4.369,0,0,0,4.063-2.614,6.69,6.69,0,0,0,.583-3.55c-.268-3.287-2.705-5.238-5.8-4.664a3.916,3.916,0,0,0-3.324,3.967v1.318" transform="translate(-233.409 -0.006)" fill="#191718"/>
    <path id="Path_74657" data-name="Path 74657" d="M149.659,66.344a9.322,9.322,0,0,1-18.643,0c.006-5.421,3.957-9.282,9.492-9.274a8.967,8.967,0,0,1,9.151,9.278m-4.286-.132c-.022-.21-.045-.624-.109-1.032a4.953,4.953,0,0,0-7.477-3.614,5.8,5.8,0,0,0-2.221,6.312,4.865,4.865,0,0,0,5.842,3.8c2.277-.4,3.912-2.577,3.965-5.466" transform="translate(-110.64 -48.192)" fill="#1a1819"/>
    <path id="Path_74658" data-name="Path 74658" d="M588.648,67.4c-1.84,0-3.681.034-5.519-.017-.715-.02-.811.232-.7.847.46,2.522,2.366,3.644,5.05,3.532a5.1,5.1,0,0,0,3.841-1.751c.235-.277.392-.23.629-.031.734.616,1.463,1.239,2.23,1.812.4.3.289.48.015.778a8.714,8.714,0,0,1-5.891,2.775,9.563,9.563,0,0,1-6.455-1.438c-3.114-2.15-4.129-5.261-3.795-8.879a8.563,8.563,0,0,1,6.252-7.838c5.863-1.523,10.579,2.1,10.71,8.23.042,1.981.042,1.981-1.938,1.981h-4.431m-2.121-3.063c1.268,0,2.535-.007,3.8,0,.346,0,.5-.037.444-.467a3.857,3.857,0,0,0-3.893-3.574,4.18,4.18,0,0,0-4.468,3.457c-.089.538.086.6.543.589,1.19-.026,2.379-.009,3.57-.009" transform="translate(-488.104 -48.002)" fill="#033f82"/>
    <path id="Path_74659" data-name="Path 74659" d="M16.623,15.969c0,2.847-.019,5.695,0,8.542.043,5.485-4.384,8.7-9.537,7.928A8.057,8.057,0,0,1,0,24.239c-.012-.448.118-.575.56-.564,1.087.029,2.175.026,3.262,0,.385-.009.545.087.571.5A7.409,7.409,0,0,0,4.632,25.7a3.6,3.6,0,0,0,3.743,2.756,3.654,3.654,0,0,0,3.706-3.2,10.5,10.5,0,0,0,.117-1.622c.008-5.643.016-11.286-.01-16.928,0-.611.154-.791.76-.754a20.815,20.815,0,0,0,2.718,0c.741-.053,1,.109.981.933-.062,3.027-.024,6.057-.024,9.085" transform="translate(0.004 -5.018)" fill="#191718"/>
    <path id="Path_74660" data-name="Path 74660" d="M703.439,34.245c0-1.32-.018-2.641.01-3.961.01-.474-.135-.638-.615-.615-.775.036-1.554,0-2.331.014-.332.007-.463-.106-.457-.445.016-.906.021-1.813,0-2.718-.01-.394.154-.476.505-.467.75.02,1.5-.023,2.253.017.5.026.663-.114.651-.635-.035-1.578.019-3.159-.029-4.737-.018-.608.179-.74.744-.713.956.047,1.917.042,2.874,0,.528-.023.713.107.7.672-.04,1.6.006,3.21-.026,4.815-.01.486.131.609.607.6,1.4-.032,2.8.014,4.2-.025.531-.016.66.164.638.658-.036.8-.032,1.606,0,2.407.017.442-.127.585-.571.576-1.32-.025-2.645.046-3.961-.029-.79-.045-.928.232-.911.951.049,2.1.091,4.2,0,6.29-.147,3.4,2.283,3.959,4.619,3.184.616-.2.783-.1.931.471a12.031,12.031,0,0,0,.684,1.973c.269.586.031.823-.467,1.035a8.063,8.063,0,0,1-6.693.016c-2.406-1.083-3.256-3.194-3.338-5.684-.04-1.216-.007-2.433-.007-3.65" transform="translate(-591.171 -16.874)" fill="#033f82"/>
  </g>
</svg>
