<svg xmlns="http://www.w3.org/2000/svg" width="130.417" height="31.444" viewBox="0 0 130.417 31.444">
  <g id="Group_104659" data-name="Group 104659" transform="translate(-1767.583 -5408)">
    <g id="symbol" transform="translate(1767.583 5408)">
      <circle id="Ellipse" cx="15.722" cy="15.722" r="15.722" fill="#ed1c24"/>
      <g id="key" transform="translate(1.602 10.014)">
        <path id="Path_75102" data-name="Path 75102" d="M55.708,91A5.708,5.708,0,1,1,50,96.708,5.708,5.708,0,0,1,55.708,91Zm-1.7,4.006a1.6,1.6,0,1,1-1.6,1.6A1.6,1.6,0,0,1,54.006,95.006Z" transform="translate(-50 -91)" fill="#fff" fill-rule="evenodd"/>
        <circle id="Ellipse_553" data-name="Ellipse 553" cx="1.602" cy="1.602" r="1.602" transform="translate(12.217 4.006)" fill="#fff"/>
        <circle id="Ellipse_554" data-name="Ellipse 554" cx="1.602" cy="1.602" r="1.602" transform="translate(16.223 4.006)" fill="#fff"/>
        <circle id="Ellipse_555" data-name="Ellipse 555" cx="1.602" cy="1.602" r="1.602" transform="translate(20.229 4.006)" fill="#fff"/>
        <circle id="Ellipse_556" data-name="Ellipse 556" cx="1.602" cy="1.602" r="1.602" transform="translate(24.635 4.006)" fill="#fff"/>
      </g>
    </g>
    <path id="LOCKSMART" d="M246.753,57.064V54.7h-5.107V42.765h-2.884v14.3Zm.18-7.15c0,4.346.541,7.431,4.867,7.431s4.867-3.084,4.867-7.431-.541-7.431-4.867-7.431-4.866,3.086-4.866,7.431Zm2.884,0c0-3.825.28-5.308,1.983-5.308s1.983,1.482,1.983,5.308c0,3.845-.28,5.308-1.983,5.308s-1.982-1.462-1.982-5.307Zm16.744-2.323c0-2.083-.3-5.107-4.426-5.107-4.326,0-4.867,3.084-4.867,7.431s.541,7.431,4.867,7.431c3.785,0,4.546-2.664,4.546-5.748H263.8c0,3.084-.761,3.625-1.8,3.625-1.242,0-1.843-.781-1.843-5.107,0-4.046.34-5.508,1.8-5.508,1.3,0,1.722.9,1.722,2.984Zm.961-4.827v14.3h2.884V52.816l1.061-1.622,2.944,5.868h3.245l-4.326-8.172,3.885-6.129h-3.124l-3.645,5.728h-.04V42.765h-2.884Zm9.393,9.834v.581c0,2.644,1.282,4.166,4.546,4.166,3.124,0,4.967-1.362,4.967-4.386,0-1.742-.561-2.844-2.724-3.785l-2.223-.961C280.261,47.69,280,47.15,280,46.268a1.477,1.477,0,0,1,1.642-1.662c1.1,0,1.562.781,1.562,2.123h2.764v-.4c0-2.744-1.863-3.845-4.426-3.845-2.724,0-4.426,1.422-4.426,4.206,0,2.383,1.182,3.445,3.745,4.326,1.9.661,2.564,1.142,2.564,2.443a1.648,1.648,0,0,1-1.722,1.762c-1.522,0-1.9-.861-1.9-2.2V52.6Zm10.214,4.466h2.644V45.649h.04l2.544,11.415H294.6l2.544-11.415h.04V57.064h2.644v-14.3h-4.266L293.5,52.859h-.04l-2.043-10.094H287.13v14.3Zm12.958,0h3l.661-3.024h3.805l.661,3.024h3l-3.785-14.3h-3.565Zm5.548-11.816h.04l1.382,6.429h-2.8Zm8.672-.361h1.362a1.775,1.775,0,0,1,2,1.983,1.881,1.881,0,0,1-2.163,2.143h-1.2Zm-2.884,12.176h2.884V51.015h1.542c1.162,0,1.662.681,1.7,1.8l.08,2.744a2.786,2.786,0,0,0,.361,1.5h3.124v-.12c-.541-.28-.621-1.062-.641-2.564-.04-3.024-.341-4.106-2.3-4.366v-.04c1.622-.34,2.383-1.622,2.383-3.525,0-2.443-1.442-3.685-3.805-3.685h-5.328v14.3Zm9.213-14.3v2.363h3.124V57.064h2.884V45.128h3.124V42.765h-9.133Z" transform="translate(1568.229 5373.517)" fill="#ed1c24" fill-rule="evenodd"/>
  </g>
</svg>
