<svg xmlns="http://www.w3.org/2000/svg" xmlns:xlink="http://www.w3.org/1999/xlink" width="96.958" height="26.264" viewBox="0 0 96.958 26.264">
  <defs>
    <clipPath id="clip-path">
      <rect id="Rectangle_44424" data-name="Rectangle 44424" width="96.958" height="26.263" fill="none"/>
    </clipPath>
  </defs>
  <g id="Group_104632" data-name="Group 104632" transform="translate(0 0)">
    <g id="Group_104631" data-name="Group 104631" transform="translate(0 0)" clip-path="url(#clip-path)">
      <path id="Path_74930" data-name="Path 74930" d="M49.119,5.452a11.2,11.2,0,0,1,4.058-.723,11.717,11.717,0,0,1,9.118,4.339,2.059,2.059,0,0,1,.469,1.281,1.9,1.9,0,0,1-.788,1.584l-.023.043a2.041,2.041,0,0,1-2.788-.359,7.683,7.683,0,0,0-5.987-2.848,7.315,7.315,0,0,0-2.665.484,7.866,7.866,0,0,0-3.885,3.172,7.7,7.7,0,0,0,6.55,11.745,7.773,7.773,0,0,0,5.993-2.877,2,2,0,0,1,1.581-.768,2.021,2.021,0,0,1,1.575,3.294,11.74,11.74,0,0,1-19.094-13.6,12.058,12.058,0,0,1,5.886-4.771" transform="translate(-17.17 -1.959)" fill="#1a1818"/>
      <path id="Path_74931" data-name="Path 74931" d="M90.614,5.469a11.233,11.233,0,0,1,4.06-.726A11.716,11.716,0,0,1,103.8,9.088a2.058,2.058,0,0,1,.464,1.28,1.923,1.923,0,0,1-.786,1.584l-.023.04a2.038,2.038,0,0,1-1.212.395,2.007,2.007,0,0,1-1.572-.755,7.754,7.754,0,0,0-5.993-2.847,7.406,7.406,0,0,0-2.662.487,7.851,7.851,0,0,0-3.886,3.172,7.7,7.7,0,0,0,6.547,11.743,7.765,7.765,0,0,0,6-2.88,2.021,2.021,0,1,1,3.156,2.526A11.738,11.738,0,0,1,84.732,10.24a12.029,12.029,0,0,1,5.881-4.771" transform="translate(-34.365 -1.965)" fill="#1a1818"/>
      <path id="Path_74932" data-name="Path 74932" d="M127.106,23.819a11.742,11.742,0,0,0,19.1-13.6,2.051,2.051,0,0,0-1.722-.962,2.022,2.022,0,0,0-2.016,2.023,2.29,2.29,0,0,0,.339,1.14,7.609,7.609,0,0,1,.509,7.084,7.8,7.8,0,0,1-2.456,3.137,7.69,7.69,0,0,1-10.593-1.352,7.531,7.531,0,0,1-1.712-4.833,7.687,7.687,0,0,1,7.708-7.691,7.358,7.358,0,0,1,2.666.484,2.045,2.045,0,0,0,.688.119,2.022,2.022,0,0,0,.7-3.92,11.194,11.194,0,0,0-4.054-.724,11.731,11.731,0,0,0-9.154,19.091" transform="translate(-51.594 -1.959)" fill="#1a1818"/>
      <path id="Path_74933" data-name="Path 74933" d="M7.686,5.453a2.026,2.026,0,0,0,.7,3.925,1.941,1.941,0,0,0,.688-.124,7.458,7.458,0,0,1,2.674-.483,7.761,7.761,0,0,1,4.5,1.472L4.678,19.512a7.689,7.689,0,0,1,.513-7.083,2.25,2.25,0,0,0,.346-1.143A2.019,2.019,0,0,0,1.8,10.224a11.74,11.74,0,0,0,19.1,13.6,1.992,1.992,0,0,0,.446-1.27,2.021,2.021,0,0,0-2.023-2.021,1.987,1.987,0,0,0-1.579.767,7.776,7.776,0,0,1-6,2.877,7.686,7.686,0,0,1-4.6-1.531l13.378-10.7a1.94,1.94,0,0,0,.805-1.588,2.058,2.058,0,0,0-.469-1.279,11.71,11.71,0,0,0-9.119-4.346,11.25,11.25,0,0,0-4.062.724" transform="translate(0 -1.959)" fill="#1a1818"/>
      <path id="Path_74934" data-name="Path 74934" d="M156.986,2.51A2.512,2.512,0,1,0,159.5,0a2.514,2.514,0,0,0-2.514,2.51m.485,0A2.027,2.027,0,1,1,159.5,4.537a2.031,2.031,0,0,1-2.028-2.027" transform="translate(-65.051 0)" fill="#1a1818"/>
      <path id="Path_74935" data-name="Path 74935" d="M160.4,3.229h.164c.243,0,.526-.036.526-.349s-.279-.327-.526-.327H160.4Zm-.5-1.065h.536c.535,0,1.171-.017,1.171.672a.57.57,0,0,1-.516.58v.006c.143.011.216.146.266.257l.4.971H161.2l-.3-.777c-.067-.184-.131-.256-.342-.256h-.16V4.651h-.5Z" transform="translate(-66.26 -0.897)" fill="#1a1818"/>
    </g>
  </g>
</svg>
