<svg xmlns="http://www.w3.org/2000/svg" width="84.829" height="38.164" viewBox="0 0 84.829 38.164">
  <g id="cars24-seeklogo.com" transform="translate(-126.4 -176.5)">
    <path id="Path_77077" data-name="Path 77077" d="M130.635,176.5h76.358a4.231,4.231,0,0,1,4.235,4.235v29.693a4.231,4.231,0,0,1-4.235,4.235H130.635a4.231,4.231,0,0,1-4.235-4.235V180.751A4.244,4.244,0,0,1,130.635,176.5Z" fill="#fff"/>
    <path id="Path_77078" data-name="Path 77078" d="M206.714,176.5H130.728a4.2,4.2,0,0,0-4.328,4.065v30a4.226,4.226,0,0,0,4.328,4.1h75.986a4.207,4.207,0,0,0,4.344-4.018V180.658a4.2,4.2,0,0,0-4.344-4.158Zm-21.8,36.457H130.728a2.438,2.438,0,0,1-2.482-2.374V180.565a2.41,2.41,0,0,1,2.482-2.327h54.189v34.72Zm24.31-3.971-4.142,3.956h-5.725l9.867-9.339v5.383Zm0-8.362h-2.5l-13.062,12.333h-5.709l13.062-12.333h-5.694l-8.548,8.083v-5.29l2.917-2.777h-2.917v-22.4H206.73a2.431,2.431,0,0,1,2.5,2.42v19.966Z" transform="translate(0)" fill="#f39324" fill-rule="evenodd"/>
    <path id="Path_77079" data-name="Path 77079" d="M170.667,238.13c3.878,0,5.414-1.955,5.414-5.213v-2.482h-3.6v3.2c0,.915-.45,1.412-1.8,1.412-1.3,0-1.8-.5-1.8-1.412V214.983c0-.915.5-1.412,1.8-1.412,1.35,0,1.8.5,1.8,1.412v3.211h3.6v-2.482c0-3.258-1.536-5.213-5.414-5.213-3.832,0-5.368,1.955-5.368,5.213V232.9C165.284,236.175,166.82,238.13,170.667,238.13Z" transform="translate(-32.865 -28.725)" fill="#055aa3" fill-rule="evenodd"/>
    <path id="Path_77080" data-name="Path 77080" d="M245.4,234.564h3.754l.7,5.29h3.506l-4-26.854H245.2l-4,26.854h3.506l.7-5.29Zm1.877-15.39,1.5,12.271h-3.025Z" transform="translate(-96.99 -30.838)" fill="#055aa3" fill-rule="evenodd"/>
    <path id="Path_77081" data-name="Path 77081" d="M332.484,228.257h1.241c1.35,0,2.249.559,2.249,2.125v4.794c0,2.343.078,3.584,1.1,4.763h3.273a6.96,6.96,0,0,1-.76-3.273v-6.05c0-1.769-.31-2.917-2.436-3.491,1.722-.341,2.141-1.536,2.141-3.025v-7.633c0-2.032-1.474-3.366-3.677-3.366H328.9v26.854h3.584v-11.7Zm0-12.054h2.389c.605,0,.822.14.822.714v7.555c0,.574-.2.76-.822.76h-2.389Z" transform="translate(-171.085 -30.922)" fill="#055aa3" fill-rule="evenodd"/>
    <path id="Path_77082" data-name="Path 77082" d="M414.666,238.13c3.429,0,5.151-2,5.151-4.685V229.69a5.469,5.469,0,0,0-1.474-3.909l-4.2-4.964a3.6,3.6,0,0,1-1.024-2.653v-3.18c0-.915.5-1.412,1.6-1.412s1.6.5,1.6,1.412v3.584h3.6v-3.382c0-2.684-1.753-4.685-5.182-4.685s-5.228,2-5.228,4.685v3.754a5.579,5.579,0,0,0,1.443,3.909l4.3,4.949a3.638,3.638,0,0,1,1.07,2.653v3.18c0,.915-.558,1.412-1.66,1.412s-1.644-.5-1.644-1.412v-3.568H409.5v3.366C409.515,236.129,411.237,238.13,414.666,238.13Z" transform="translate(-239.181 -28.725)" fill="#055aa3" fill-rule="evenodd"/>
    <path id="Path_77083" data-name="Path 77083" d="M554.17,220.509a8.672,8.672,0,0,0,1.288-4.018c0-2.5-1.148-3.491-2.932-3.491-1.427,0-2.932.915-2.932,3.568h1.893c0-1.272.326-1.955,1.07-1.955.76,0,1.024.652,1.024,1.955a6.566,6.566,0,0,1-1.024,3.413l-3.056,5.942v1.613h6.035v-1.66h-4.1Z" transform="translate(-357.462 -30.838)" fill="#055aa3" fill-rule="evenodd"/>
    <path id="Path_77084" data-name="Path 77084" d="M590.545,214.2h-1.784l-3.661,9.308v1.567h3.6v3.475h1.846v-3.475h.977v-1.644h-.977V214.2Zm-1.862,9.231h-1.862l1.862-4.778Z" transform="translate(-387.539 -31.851)" fill="#055aa3" fill-rule="evenodd"/>
  </g>
</svg>
