<svg xmlns="http://www.w3.org/2000/svg" xmlns:xlink="http://www.w3.org/1999/xlink" width="70.639" height="47" viewBox="0 0 70.639 47">
  <defs>
    <clipPath id="clip-path">
      <rect id="Rectangle_1797" data-name="Rectangle 1797" width="70.639" height="47" fill="none"/>
    </clipPath>
  </defs>
  <g id="Group_2138" data-name="Group 2138" clip-path="url(#clip-path)">
    <path id="Path_5734" data-name="Path 5734" d="M311.07,176.354h-3.08a2.065,2.065,0,0,0-.447-1.073,2.319,2.319,0,0,0-1.669-.5,2.491,2.491,0,0,0-1.593.382.988.988,0,0,0-.341.787c0,.465.649.84,1.934,1.127a30.555,30.555,0,0,1,3.168.818c.17.064.319.116.425.17a2.978,2.978,0,0,1,1.956,2.807,3.556,3.556,0,0,1-1.9,3.348c-.16.086-.309.16-.479.232a7.193,7.193,0,0,1-2.847.531,7.814,7.814,0,0,1-3.893-.851,3.676,3.676,0,0,1-1.395-1.363,3.835,3.835,0,0,1-.465-1.92h3.23a1.529,1.529,0,0,0,.6,1.286,3.318,3.318,0,0,0,2.008.468,2.424,2.424,0,0,0,1.6-.447,1,1,0,0,0,.4-.787c0-.5-.639-.892-1.9-1.169a20.7,20.7,0,0,1-3.571-.968,2.964,2.964,0,0,1-1.934-2.838,3.709,3.709,0,0,1,1.009-2.645,5,5,0,0,1,3.816-1.35,7.975,7.975,0,0,1,3.348.6,1.166,1.166,0,0,1,.2.107,3.365,3.365,0,0,1,1.368,1.308,3.893,3.893,0,0,1,.459,1.944" transform="translate(-240.782 -138.165)"/>
    <path id="Path_5735" data-name="Path 5735" d="M340.864,152.106a.253.253,0,0,0-.042-.16.229.229,0,0,0-.137-.106,1.556,1.556,0,0,0-.2-.033h-.488v.6h.488a.453.453,0,0,0,.287-.084.268.268,0,0,0,.1-.213m.256-.32a.465.465,0,0,1,.1.287.518.518,0,0,1-.16.382.614.614,0,0,1-.414.181.536.536,0,0,1,.17.106l.3.394.232.392h-.383l-.181-.318a1.8,1.8,0,0,0-.3-.425.138.138,0,0,0-.042-.032l-.254-.074h-.192v.85h-.32v-2h.691c.043,0,.086.01.116.01a1.148,1.148,0,0,1,.383.053.465.465,0,0,1,.256.191" transform="translate(-272.224 -121.442)"/>
    <path id="Path_5736" data-name="Path 5736" d="M337.863,148.951a1.542,1.542,0,0,0-.2-.776,1.5,1.5,0,0,0-.574-.574,1.644,1.644,0,0,0-.755-.2h-.01a1.636,1.636,0,0,0-.755.2,1.488,1.488,0,0,0-.575.574,1.511,1.511,0,0,0,0,1.542,1.442,1.442,0,0,0,.564.563,1.523,1.523,0,0,0,.765.2h.01a1.532,1.532,0,0,0,.767-.2,1.433,1.433,0,0,0,.563-.563,1.533,1.533,0,0,0,.2-.765m.309,0a1.818,1.818,0,0,1-.245.914,1.608,1.608,0,0,1-.679.679,1.778,1.778,0,0,1-.915.246h-.01a1.773,1.773,0,0,1-.913-.246,1.609,1.609,0,0,1-.681-.679,1.816,1.816,0,0,1-.244-.914,1.842,1.842,0,0,1,.244-.936,1.713,1.713,0,0,1,.691-.68,2.011,2.011,0,0,1,.9-.244h.01a1.89,1.89,0,0,1,.9.244,1.638,1.638,0,0,1,.691.68,1.845,1.845,0,0,1,.245.936" transform="translate(-268.064 -117.883)"/>
    <path id="Path_5737" data-name="Path 5737" d="M181.537,16.05l8.727,14.541h-14.02L167.911,16.7,161.6,6.186l6.313-3.794L171.885,0Z" transform="translate(-129.51)"/>
    <path id="Path_5738" data-name="Path 5738" d="M242.965,179.415v5.963h-2.9v-.66a6.208,6.208,0,0,1-3.4,1.011h-.033a6.314,6.314,0,0,1,0-12.627h.033a6.221,6.221,0,0,1,3.4,1.009v-.691h2.9Zm-2.9.659v-1.318a3.477,3.477,0,0,0-3.4-2.807h-.033a3.471,3.471,0,1,0,0,6.941h.033a3.487,3.487,0,0,0,3.4-2.817" transform="translate(-184.603 -138.729)"/>
    <path id="Path_5739" data-name="Path 5739" d="M174.349,164.145v5.963h-2.9v-.66a6.236,6.236,0,0,1-3.4,1.01h-.031a6.314,6.314,0,0,1,0-12.627h.031a6.248,6.248,0,0,1,3.4,1.009v-4.793h2.9Zm-2.9.66v-1.318a3.478,3.478,0,0,0-3.4-2.807h-.031a3.471,3.471,0,1,0,0,6.941h.031a3.487,3.487,0,0,0,3.4-2.817" transform="translate(-129.613 -123.459)"/>
    <path id="Path_5740" data-name="Path 5740" d="M117.892,68.793l3.422,5.72H107.3L99.526,61.567,99.186,61l.34-.2,9.959-6Z" transform="translate(-79.491 -43.923)"/>
    <rect id="Rectangle_1795" data-name="Rectangle 1795" width="3.156" height="12.277" transform="translate(27.826 34.372)"/>
    <rect id="Rectangle_1796" data-name="Rectangle 1796" width="3.156" height="2.774" transform="translate(27.826 30.653)"/>
    <path id="Path_5741" data-name="Path 5741" d="M81.866,164.147v5.963h-2.9v-.66a6.266,6.266,0,0,1-3.412,1.01h-.031a6.313,6.313,0,0,1,0-12.627h.031a6.279,6.279,0,0,1,3.412,1.011v-4.793h2.9Zm-2.9.66v-1.318a3.48,3.48,0,0,0-3.412-2.807h-.031a3.471,3.471,0,1,0,0,6.941h.031a3.487,3.487,0,0,0,3.412-2.817" transform="translate(-55.487 -123.461)"/>
    <path id="Path_5742" data-name="Path 5742" d="M49.548,113.7l2.869,4.784H38.4l-1.573-2.626,10.3-6.186Z" transform="translate(-29.513 -87.896)"/>
    <path id="Path_5743" data-name="Path 5743" d="M12.585,179.415v5.963h-2.9v-.66a6.276,6.276,0,0,1-3.412,1.011H6.239a6.314,6.314,0,0,1,0-12.627h.033a6.286,6.286,0,0,1,3.412,1.009v-.691h2.9Zm-2.9.659v-1.318a3.48,3.48,0,0,0-3.412-2.808H6.239a3.471,3.471,0,1,0,0,6.941h.033a3.487,3.487,0,0,0,3.412-2.817" transform="translate(0.031 -138.729)"/>
  </g>
</svg>
