<svg id="ikea-logo.f7d9229f806b59ec64cb" xmlns="http://www.w3.org/2000/svg" width="100" height="40" viewBox="0 0 100 40">
  <path id="Path_74960" data-name="Path 74960" d="M99.986,40H0V0H100V40Z" fill="#0058ab" fill-rule="evenodd"/>
  <path id="Path_74961" data-name="Path 74961" d="M2,20c0,9.833,20.116,18,48.007,18S98,29.833,98,20,77.884,2,50.007,2,2,10.167,2,20Z" fill="#fbd914" fill-rule="evenodd"/>
  <path id="Path_74962" data-name="Path 74962" d="M46.448,26a8.163,8.163,0,0,0,1.06,1.245H36.688a4.768,4.768,0,0,0-.875-1.945q-1.471-2.172-2.938-4.35v5.05a2.55,2.55,0,0,0,.215,1.245H24.075a2.552,2.552,0,0,0,.215-1.245V14a2.548,2.548,0,0,0-.215-1.245H33.09A2.55,2.55,0,0,0,32.875,14v5.246s2.88-3.665,3.54-4.519a5.2,5.2,0,0,0,1.118-1.972h9.4a10.154,10.154,0,0,0-1.949,1.874l-3.44,4.1s4.329,6.45,4.9,7.275Zm2.838-12V26a2.55,2.55,0,0,1-.215,1.245h17.4v-4.03a2.728,2.728,0,0,1-1.276.21H57.871v-1.9h7.037v-3.05H57.871V16.56h7.324a2.9,2.9,0,0,1,1.276.2V12.741h-17.4A2.632,2.632,0,0,1,49.286,14ZM90.578,26a3.488,3.488,0,0,0,.7,1.245H81.85A2.632,2.632,0,0,0,81.563,26s-.143-.336-.344-.826l-.086-.21H75.7l-.086.224s-.158.406-.3.826a2.769,2.769,0,0,0-.244,1.245H67.632a3.64,3.64,0,0,0,.673-1.245l4.458-12a2.612,2.612,0,0,0,.258-1.245h12.57a2.077,2.077,0,0,0,.272,1.245c.372.91,4.4,11.178,4.715,11.99ZM79.943,21.9l-1.318-3.357a7.29,7.29,0,0,1-.287-.952,5.5,5.5,0,0,1-.258.952c-.043.14-.6,1.609-1.247,3.357h3.11ZM19.8,12.754H10A2.554,2.554,0,0,1,10.215,14V26A2.55,2.55,0,0,1,10,27.249h9.8A2.552,2.552,0,0,1,19.589,26V14a2.548,2.548,0,0,1,.215-1.245ZM87.568,13.9a1.845,1.845,0,0,1,1.82-1.9h.13a1.89,1.89,0,0,1,1.949,1.833v.07a1.958,1.958,0,0,1-3.913.1A.238.238,0,0,0,87.568,13.9Zm.387,0a1.563,1.563,0,1,0,1.563-1.525,1.492,1.492,0,0,0-1.563,1.413V13.9Zm1.176,1.133h-.344V12.741h.874a.74.74,0,0,1,.73.741.764.764,0,0,1-.415.672l.5.881h-.387l-.459-.811h-.5Zm0-1.133H89.6a.393.393,0,0,0,.43-.378.4.4,0,0,0-.387-.42h-.516Z" fill="#0058a3"/>
</svg>
