<svg id="Group_104634" data-name="Group 104634" xmlns="http://www.w3.org/2000/svg" xmlns:xlink="http://www.w3.org/1999/xlink" width="169.877" height="42.148" viewBox="0 0 169.877 42.148">
  <defs>
    <clipPath id="clip-path">
      <rect id="Rectangle_44425" data-name="Rectangle 44425" width="169.877" height="42.148" fill="none"/>
    </clipPath>
  </defs>
  <g id="Group_104633" data-name="Group 104633" transform="translate(0 0)" clip-path="url(#clip-path)">
    <path id="Path_74936" data-name="Path 74936" d="M41.609,13.452a1.444,1.444,0,0,0-.656-1.3,1.424,1.424,0,0,0-.659-.208H29.935v.659H40.277a.82.82,0,0,1,.367.133.8.8,0,0,1,.31.729v.017l0,.019s0,.041.012.127c.023.257.068.895.068,1.813a29.268,29.268,0,0,1-2.583,12.084A22.978,22.978,0,0,1,24.74,39.685a.912.912,0,0,1-.468.043h0a.378.378,0,0,1-.262-.2.3.3,0,1,1,.525-.285.278.278,0,0,1,.013.028h0l.5-.4a.891.891,0,0,0-.792-.541,1.041,1.041,0,0,0-.015,2.06,2.642,2.642,0,0,0,.5-.036c.018,0,.257-.07.516-.161A23.592,23.592,0,0,0,39.045,27.807a29.934,29.934,0,0,0,2.646-12.364c0-1.138-.069-1.86-.082-1.991" transform="translate(-4.878 -2.494)"/>
    <path id="Path_74937" data-name="Path 74937" d="M.082,13.452a1.444,1.444,0,0,1,.656-1.3,1.424,1.424,0,0,1,.659-.208H11.757v.659H1.414a.821.821,0,0,0-.366.133.8.8,0,0,0-.31.729v.017l0,.019s0,.041-.013.127c-.022.257-.067.895-.067,1.813A29.268,29.268,0,0,0,3.238,27.527,22.981,22.981,0,0,0,16.951,39.685a.911.911,0,0,0,.468.043h0a.378.378,0,0,0,.262-.2.3.3,0,1,0-.525-.285.278.278,0,0,0-.013.028h0l-.5-.4a.891.891,0,0,1,.792-.541,1.041,1.041,0,0,1,.015,2.06,2.642,2.642,0,0,1-.5-.036c-.018,0-.257-.07-.516-.161A23.592,23.592,0,0,1,2.646,27.807,29.921,29.921,0,0,1,0,15.443c0-1.138.069-1.86.082-1.991" transform="translate(0 -2.494)"/>
    <path id="Path_74938" data-name="Path 74938" d="M16.885,51.716c-.1.135-.3.317-.354.317-.032,0-.04-.037-.016-.1.119-.331.219-.6.294-.833a1.468,1.468,0,0,0,.08-.415.252.252,0,0,0-.251-.271c-.39,0-.7.49-.93.866h-.017l.187-.572c.036-.108.052-.294-.131-.294a.971.971,0,0,0-.76.555.08.08,0,0,0,.072.074c.092-.1.256-.252.338-.252.048,0,.044.074.017.168-.06.2-.362,1.2-.382,1.263-.04.149.116.187.215.187s.163-.019.191-.085a7.9,7.9,0,0,1,.616-1.309c.139-.21.247-.3.3-.3.036,0,.052.028.052.066a.822.822,0,0,1-.052.218c-.1.326-.218.647-.339.974a.833.833,0,0,0-.059.251.192.192,0,0,0,.172.183,1.063,1.063,0,0,0,.836-.6c0-.061-.036-.1-.08-.089m1.407-1.3a.925.925,0,0,0-.624.271,1.711,1.711,0,0,0-.537,1.188c0,.3.139.536.426.536a1,1,0,0,0,.866-.559.093.093,0,0,0-.079-.108.786.786,0,0,1-.517.326c-.119,0-.171-.13-.171-.256a.864.864,0,0,1,.02-.225c.322-.1,1-.32,1-.8a.369.369,0,0,0-.386-.373m-.207.7a.806.806,0,0,1-.378.265,1.727,1.727,0,0,1,.275-.643c.059-.079.119-.12.17-.12s.076.055.076.107a.769.769,0,0,1-.143.392m3.623.475c-.013.02-.025.036-.036.055a1.558,1.558,0,0,1-.585.426v0a.418.418,0,0,1-.04.015.826.826,0,0,1-.146.033l-.043,0a.432.432,0,0,1-.045,0h-.105c-.29,0-.354-.032-.39-.112a.861.861,0,0,1,.056-.442L20.526,51c.032-.126.047-.14.151-.14h.262c.207,0,.247.038.223.261l-.012.116c.015.037.119.032.151,0,.036-.149.071-.316.119-.494s.1-.35.147-.494c-.012-.042-.112-.047-.151,0l-.051.112c-.1.223-.155.261-.362.261H20.74c-.1,0-.112-.009-.076-.14l.219-.811c.047-.176.059-.186.195-.186h.149a.678.678,0,0,1,.684.4c.2.307.236.123.236.123l-.141-.741H20.668c-.154,0-.358,0-.544-.014a.116.116,0,0,0-.028.163l.1.019c.186.037.183.126.083.5L19.81,51.67c-.116.434-.147.466-.335.5l-.135.023c-.056.018-.06.135-.021.163.2-.009.378-.014.578-.014h.517c.163,0,.343,0,.51,0l.164,0v0h.189v0l.284.008a3.6,3.6,0,0,0,.307-.736.109.109,0,0,0-.159-.028m-6.865-.768a.866.866,0,0,0,.051-.2.214.214,0,0,0-.183-.206,1.245,1.245,0,0,0-.8.536.091.091,0,0,0,.064.112c.063-.07.286-.265.354-.265.02,0,.02.028.007.065l-.413,1.16a.662.662,0,0,0-.048.2c0,.055.08.187.184.187a1.184,1.184,0,0,0,.835-.555.088.088,0,0,0-.075-.112,1.226,1.226,0,0,1-.374.294c-.028,0-.032-.028-.016-.07Zm-.014-1.669a.356.356,0,0,0-.351.353.239.239,0,0,0,.207.288c.182.018.318-.141.338-.345.018-.176-.059-.282-.194-.3m-2.034.513c.047-.176.052-.186.187-.186h.261a.679.679,0,0,1,.684.4c.195.307.236.123.236.123l-.142-.741h-1.44c-.156,0-.354,0-.545-.014a.121.121,0,0,0-.028.163l.095.019c.187.037.184.126.083.5l-.464,1.733c-.116.434-.147.466-.319.5l-.123.023c-.04.018-.044.135,0,.163.2-.009.377-.014.569-.014s.393,0,.616.014a.162.162,0,0,0,.028-.163l-.131-.018c-.2-.028-.2-.127-.1-.5l.167-.624c.032-.126.048-.14.147-.14h.31a.638.638,0,0,1,.121.009v-.122l.014.18c.127.016.153.093.155.307v.142c.025.051.154.035.19-.021.03-.185.053-.406.1-.628s.089-.449.135-.637c-.02-.051-.146-.047-.191.01l-.055.146c-.1.27-.158.328-.363.353v.01l-.042,0h-.309c-.1,0-.112-.009-.076-.135Zm18.769.3a.256.256,0,0,0-.088-.2.391.391,0,0,0-.266-.078h-.434v.937h.2v-.379H31.2l.151.379h.211l-.173-.412a.253.253,0,0,0,.174-.247m-.382.132h-.206v-.263H31.2c.107,0,.16.044.16.128s-.058.135-.175.135m-1.262.314a.624.624,0,0,0-.426.2.751.751,0,0,0-.223.508.733.733,0,0,0,.2.469l.131.164a.4.4,0,0,1,.116.237.141.141,0,0,1-.135.135c-.08,0-.159-.051-.315-.243-.047-.055-.079-.1-.123-.1-.1,0-.195.121-.195.27a.379.379,0,0,0,.393.36.687.687,0,0,0,.5-.206.669.669,0,0,0,.036-.992l-.151-.182a.334.334,0,0,1-.1-.209.12.12,0,0,1,.1-.122c.079,0,.155.051.314.266a.131.131,0,0,0,.091.065.215.215,0,0,0,.184-.242.379.379,0,0,0-.389-.373m-7.067,0a.622.622,0,0,0-.426.2.75.75,0,0,0-.222.508.732.732,0,0,0,.195.469l.131.164a.406.406,0,0,1,.115.237.141.141,0,0,1-.135.135c-.079,0-.159-.051-.313-.243-.048-.055-.08-.1-.123-.1-.1,0-.2.121-.2.27a.38.38,0,0,0,.394.36.687.687,0,0,0,.5-.206.669.669,0,0,0,.035-.992l-.151-.182a.332.332,0,0,1-.1-.209.12.12,0,0,1,.1-.122c.08,0,.155.051.314.266a.133.133,0,0,0,.093.065c.059,0,.182-.06.182-.242a.379.379,0,0,0-.389-.373m6.022,1.328a.781.781,0,0,1-.517.326c-.119,0-.171-.13-.171-.256a.864.864,0,0,1,.02-.225c.323-.1,1-.32,1-.8a.369.369,0,0,0-.386-.373.927.927,0,0,0-.624.271,1.711,1.711,0,0,0-.537,1.188c0,.3.139.536.426.536a1,1,0,0,0,.867-.559.093.093,0,0,0-.08-.108m-.362-1a.246.246,0,0,1,.171-.12c.048,0,.076.055.076.107a.761.761,0,0,1-.143.392.811.811,0,0,1-.377.265,1.722,1.722,0,0,1,.274-.643m3.215-1.156a.772.772,0,0,0-.57-.239.812.812,0,1,0,.57.239m-.1,1.057a.651.651,0,0,1-.939,0,.694.694,0,0,1,0-.965.636.636,0,0,1,.473-.2.626.626,0,0,1,.467.2.692.692,0,0,1,0,.964m-7.308,1.036c-.16.191-.351.358-.423.358-.044,0-.044-.042-.024-.108l.37-1.206h.4c.039-.032.083-.182.019-.242H24.3l.108-.424a.166.166,0,0,0-.148-.079.228.228,0,0,0-.135.037l-.286.448-.346.083c-.044.028-.072.14-.032.177h.294l-.362,1.234a.852.852,0,0,0-.044.252.2.2,0,0,0,.183.2,1.31,1.31,0,0,0,.867-.625c0-.061-.02-.1-.079-.107m3.1,0c-.159.191-.351.358-.422.358-.044,0-.044-.042-.024-.108l.37-1.206h.4c.04-.032.083-.182.02-.242h-.366l.108-.424a.166.166,0,0,0-.148-.079.224.224,0,0,0-.135.037l-.286.448-.346.083c-.044.028-.072.14-.032.177h.294l-.362,1.234a.859.859,0,0,0-.044.252.2.2,0,0,0,.184.2,1.306,1.306,0,0,0,.866-.625c0-.061-.019-.1-.079-.107m-1.052.089a.943.943,0,0,1-.374.288c-.028,0-.024-.037-.008-.1.152-.517.326-1.034.478-1.472a.264.264,0,0,0-.148-.12.4.4,0,0,0-.146-.028.183.183,0,0,0-.108.032l-.092.219a.3.3,0,0,0-.175-.107,1.045,1.045,0,0,0-.708.4,2.267,2.267,0,0,0-.6,1.239.281.281,0,0,0,.242.29c.29,0,.673-.369.907-.732h.016l-.119.358a.731.731,0,0,0-.044.2.173.173,0,0,0,.154.182,1.1,1.1,0,0,0,.8-.545c0-.065-.036-.1-.075-.1m-.839-.168c-.119.186-.338.46-.426.46-.032,0-.052-.028-.055-.074V51.94a2.291,2.291,0,0,1,.394-1.016c.135-.2.206-.242.267-.242s.119.042.166.176a3.842,3.842,0,0,1-.346.737" transform="translate(-2.348 -10.262)"/>
    <path id="Path_74939" data-name="Path 74939" d="M22.128,32.712h-.145v0h-.219v-3.7c0-.591.632-.633.632-.633v-.321H20.447v.321s.633.042.633.633v3.007c0,.591-.633.633-.633.633v.376h1.379v0H23.3l.138.144H23.6l.342-1.639h-.306a1.452,1.452,0,0,1-1.51,1.182M33.8,19.56a3.407,3.407,0,0,0-5.081,4.509A3.407,3.407,0,0,0,33.8,19.56M32.886,23.9A2.513,2.513,0,0,1,29.42,23.2a2.514,2.514,0,0,1,.177-3.531,2.513,2.513,0,0,1,3.466.693,2.514,2.514,0,0,1-.177,3.531M6.848,23.751V21.687a1.625,1.625,0,0,1,.32.383c.306.5,1.711,2.781,2.12,2.781h1.218v-.424l-.01-.052c-.819,0-2.269-2.474-2.269-2.474A2.342,2.342,0,0,0,9.7,20.061l-.009-.051a1.125,1.125,0,0,0,0-.133c-.034-1.17-.945-1.153-.945-1.153H8.4c-.036,0-.074,0-.112,0H5.147v.4s.78.051.78.779v3.709c0,.729-.78.78-.78.78v.464H7.59V24.4s-.742-.047-.742-.647m0-4.338a.894.894,0,0,1,.707-.259,1.223,1.223,0,0,1,1.073,1.19s.1,1.127-.87,1.165a1.678,1.678,0,0,1-.367-.074,1.412,1.412,0,0,1-.544-.407Zm16.529,1.823a2.287,2.287,0,0,0-2.514-2.514H16.9v.4s.779.051.779.779v3.709c0,.729-.779.78-.779.78v.464h2.859a3.5,3.5,0,0,0,3.615-3.615m-4.683-1.705a3.262,3.262,0,0,1,1.461-.377,2.228,2.228,0,0,1,2.24,2.451c0,2.876-2.263,2.758-2.263,2.758a3.01,3.01,0,0,1-1.438-.472Zm8.667,5.5h.221l.448-2.059h-.4a1.872,1.872,0,0,1-1.98,1.485h-.354V22.006h1.722v-.519c-1.58,0-1.722-1.061-1.722-1.061v-1.2h.472s1.533.07,1.533,1.3H27.6v-2H27.44l-.165.2H23.6v.4s.779.051.779.779v3.709c0,.729-.779.78-.779.78v.464h3.583ZM16.025,19.56a3.276,3.276,0,0,0-4.626-.1,3.277,3.277,0,0,0-.455,4.606,3.277,3.277,0,0,0,4.627.1,3.277,3.277,0,0,0,.454-4.606M15.112,23.9a2.514,2.514,0,0,1-3.466-.693,2.513,2.513,0,0,1,.177-3.531,2.513,2.513,0,0,1,3.466.693,2.513,2.513,0,0,1-.177,3.531m12.407,4.171H23.991l-.125-.163h-.127V29.5h.234c0-.975,1.169-1.032,1.169-1.032h.165V32.02a.627.627,0,0,1-.595.62v.369h.009v.014h1.993v-.014h.01V32.64a.627.627,0,0,1-.595-.62V28.467h.237s1.169.057,1.169,1.032h.233V27.9h-.125Zm-8.141,3.227-1.215-3.419h-.271l-1.615,4.161s-.294.661-.7.661v.318h1.741l-.009-.331s-.813.131-.6-.595l.26-.689h1.606L19,32.544a.135.135,0,0,1-.147.147v.324h1.385v-.331s-.307.153-.861-1.39m-2.215-.377.636-1.685.612,1.685Zm-3.427,1.775h-.27V30.718h1.313V30.3c-1.2,0-1.313-.854-1.313-.854v-.967h.359S15,28.537,15,29.524h.233V27.911H15.1l-.126.165H12.171v.32a.629.629,0,0,1,.595.627v2.984a.63.63,0,0,1-.595.627v.373H14.9l.138.146h.168l.342-1.656h-.306a1.458,1.458,0,0,1-1.51,1.195m-3.5-2.062a1.9,1.9,0,0,0,1.193-1.49l-.008-.043a.767.767,0,0,0,0-.108c-.027-.949-.765-.935-.765-.935h-.278l-.092,0H7.741v.321s.631.042.631.633v3.007c0,.591-.631.633-.631.633v.376H9.723v-.367s-.6-.038-.6-.525V30.457a1.326,1.326,0,0,1,.26.311c.248.408,1.388,2.255,1.719,2.255h.987v-.344l-.008-.043c-.664,0-1.84-2.007-1.84-2.007m-.678-.377a1.14,1.14,0,0,1-.441-.33V28.613a.725.725,0,0,1,.574-.21.992.992,0,0,1,.87.965s.082.914-.7.945a1.4,1.4,0,0,1-.3-.061m20.98-1.787c.518,0,.554.118.554.118.413.412-.849,2.1-.849,2.1-.518-1.131-1.155-2.192-1.155-2.192h.165v-.432H27.841v.362s.765.188,1.79,3v.594c0,.591-.633.633-.633.633v.376h1.949v-.376s-.633-.042-.633-.633v-.709l1.315-2.211s.472-.715.715-.715v-.322h-1.8Z" transform="translate(-1.075 -3.866)"/>
    <path id="Path_74940" data-name="Path 74940" d="M29.121,0a4.215,4.215,0,0,0-2.4,1.031A3.331,3.331,0,0,0,24.854.413,3.618,3.618,0,0,0,21.247,3.8c0,1.827,1.049,2.3,1.049,2.3.188,0,0-.306,0-.306a2.994,2.994,0,0,1-.636-1.945C22.072.519,24.854.649,24.854.649a2.809,2.809,0,0,1,1.643.563,10.752,10.752,0,0,0-2.361,2.937l-.083.146a1.136,1.136,0,0,1-.543-.936,1.321,1.321,0,0,1,.7-1.1c.449-.118.377-.248.377-.248,0-.153-.318-.059-.318-.059a1.524,1.524,0,0,0-1.049,1.4,1.183,1.183,0,0,0,.7,1.16,10.581,10.581,0,0,1-3.2,3.469,10.581,10.581,0,0,1-3.2-3.469,1.182,1.182,0,0,0,.7-1.16,1.524,1.524,0,0,0-1.048-1.4s-.319-.094-.319.059c0,0-.071.13.377.248a1.321,1.321,0,0,1,.7,1.1,1.136,1.136,0,0,1-.543.936c-.053-.093-.082-.146-.082-.146a10.767,10.767,0,0,0-2.362-2.937A2.812,2.812,0,0,1,16.587.649s2.781-.13,3.194,3.194a3,3,0,0,1-.637,1.945s-.188.306,0,.306c0,0,1.049-.472,1.049-2.3A3.618,3.618,0,0,0,16.587.413a3.332,3.332,0,0,0-1.869.618A4.214,4.214,0,0,0,12.32,0,1.581,1.581,0,0,0,10.6,1.556c0,2.051,2.24,2.181,2.24,2.181.424,0,.377-.213.377-.213,0-.082-.229-.053-.229-.053a1.841,1.841,0,0,1-1.918-1.917,1.251,1.251,0,0,1,1.22-1.22,3.3,3.3,0,0,1,2.128,1,2.122,2.122,0,0,0-.447,1.381s-.083,1.6,2.052,1.98c0,0,.055.009.149.017-.919.422-.448,1.088-.448,1.088a3.211,3.211,0,0,1,.762,1.7c0,.534-.432.534-.432.534a2.161,2.161,0,0,1-1.658-1.768c0-.392.244-.392.244-.392.785-.032,1.233,1.627,1.233,1.627.188,0,.165-.354.165-.354C15.682,5.552,14.629,5.5,14.629,5.5c-.66,0-.566.707-.566.707a2.235,2.235,0,0,0,2.075,2.075.8.8,0,0,0,.523-.176c.119.294.5.608,1.559.608a9.927,9.927,0,0,0,2.5-.347,9.927,9.927,0,0,0,2.5.347c1.063,0,1.44-.314,1.559-.608a.8.8,0,0,0,.523.176,2.235,2.235,0,0,0,2.075-2.075s.094-.707-.566-.707c0,0-1.053.047-1.407,1.635,0,0-.023.354.165.354,0,0,.448-1.658,1.234-1.627,0,0,.244,0,.244.392a2.161,2.161,0,0,1-1.658,1.768s-.433,0-.433-.534a3.2,3.2,0,0,1,.762-1.7s.471-.666-.448-1.088c.093-.008.149-.017.149-.017,2.134-.377,2.052-1.98,2.052-1.98a2.118,2.118,0,0,0-.448-1.381,3.307,3.307,0,0,1,2.129-1,1.251,1.251,0,0,1,1.22,1.22,1.841,1.841,0,0,1-1.917,1.917s-.23-.029-.23.053c0,0-.047.213.377.213,0,0,2.24-.13,2.24-2.181A1.581,1.581,0,0,0,29.121,0M22.244,7.373l-.01.008h0l.011-.008m-3.037.008h0l-.01-.008.011.008M14.488,2.3a1.2,1.2,0,0,1,.166-.743,10.735,10.735,0,0,1,1.689,2.3c.136.21.286.429.444.649h0a2.292,2.292,0,0,1-2.3-2.2m1.78,3.195c-.363-.609.3-.757.526-.789l.075-.009h.058c.752,1.032,1.585,2.018,1.585,2.018a5.466,5.466,0,0,0,.675.65,2.158,2.158,0,0,0-1.3-.351,2.067,2.067,0,0,0-.867.186,6.689,6.689,0,0,0-.748-1.706m2.118,2.973c-1.563,0-1.494-.594-1.48-.668a1.261,1.261,0,0,0,.068-.161c.223-.356.822-.35.822-.35a5.774,5.774,0,0,1,2.444.88,6.289,6.289,0,0,1-1.855.3m4.668,0a6.289,6.289,0,0,1-1.855-.3,5.774,5.774,0,0,1,2.444-.88s.6-.006.822.35a1.375,1.375,0,0,0,.067.161c.015.074.084.668-1.479.668m2.118-2.973A6.719,6.719,0,0,0,24.424,7.2a2.067,2.067,0,0,0-.867-.186,2.152,2.152,0,0,0-1.3.351,5.579,5.579,0,0,0,.675-.65s.831-.986,1.584-2.018h.059l.074.009c.231.032.889.18.526.789M26.952,2.3a2.292,2.292,0,0,1-2.3,2.2c.157-.22.308-.439.444-.649a10.735,10.735,0,0,1,1.689-2.3,1.2,1.2,0,0,1,.165.743" transform="translate(-2.213 0)"/>
    <path id="Path_74941" data-name="Path 74941" d="M18.6,13.814a2.11,2.11,0,0,1-.219-.808,1.893,1.893,0,0,1,.2-.924c-.021-.029-.041-.059-.058-.087a1.565,1.565,0,0,1-.183-.423.117.117,0,0,1,.086-.142.116.116,0,0,1,.142.086s.01.041.035.108a1.322,1.322,0,0,0,.119.246l0,0a.927.927,0,0,1,.108-.1.84.84,0,0,1,.481-.195.505.505,0,0,1,.422.173.453.453,0,0,1,.089.279.5.5,0,0,1,0,.063.29.29,0,0,1-.089.206.434.434,0,0,1-.174.1,1,1,0,0,1-.3.042h-.029a.737.737,0,0,1-.479-.176,1.77,1.77,0,0,0-.134.738s0,.018,0,.057.01.093.023.16a1.851,1.851,0,0,0,.165.487A1.239,1.239,0,0,0,20,14.4c.006,0,.027,0,.054-.008l.024-.006a2.346,2.346,0,0,1-.366-.294,1.211,1.211,0,0,1-.413-.819c0-.01,0-.033,0-.065a1.088,1.088,0,0,1,.056-.351.581.581,0,0,1,.328-.358.118.118,0,0,1,.087.219.343.343,0,0,0-.192.219.867.867,0,0,0-.043.271c0,.032,0,.049,0,.049v.011c-.009.362.381.718.588.862.067.049.109.074.109.074l.023.018a.26.26,0,0,1,.089.181.191.191,0,0,1-.081.154.353.353,0,0,1-.113.053.7.7,0,0,1-.136.025H20a1.482,1.482,0,0,1-1.4-.818m.635-1.61h.024a.548.548,0,0,0,.305-.074.049.049,0,0,0,.018-.044l0-.021a.176.176,0,0,0,0-.035.222.222,0,0,0-.04-.135c-.032-.037-.083-.079-.233-.081l-.022,0a.614.614,0,0,0-.074.016.662.662,0,0,0-.237.124.722.722,0,0,0-.1.1.518.518,0,0,0,.36.142" transform="translate(-3.829 -2.386)"/>
    <path id="Path_74942" data-name="Path 74942" d="M16.44,14.633h-.009a.52.52,0,0,1-.248-.077A.192.192,0,0,1,16.1,14.4a.259.259,0,0,1,.09-.182l.023-.017s.042-.025.108-.074a2.155,2.155,0,0,0,.246-.207.986.986,0,0,0,.343-.655v-.011s0-.017,0-.05a.818.818,0,0,0-.043-.271.34.34,0,0,0-.191-.219.118.118,0,0,1,.087-.219.576.576,0,0,1,.326.358,1.067,1.067,0,0,1,.057.351c0,.033,0,.057,0,.066a1.207,1.207,0,0,1-.412.817,2.36,2.36,0,0,1-.367.3.723.723,0,0,0,.077.013,1.261,1.261,0,0,0,1.025-.436,1.661,1.661,0,0,0,.333-.742,1.523,1.523,0,0,0,.028-.213,1.78,1.78,0,0,0-.134-.741.732.732,0,0,1-.475.174h-.035a.714.714,0,0,1-.469-.14.288.288,0,0,1-.09-.2.4.4,0,0,1,0-.063.453.453,0,0,1,.089-.279.5.5,0,0,1,.423-.173.841.841,0,0,1,.479.195.992.992,0,0,1,.108.1,1.374,1.374,0,0,0,.122-.251,1.012,1.012,0,0,0,.035-.108.118.118,0,0,1,.142-.087.117.117,0,0,1,.086.142,1.571,1.571,0,0,1-.181.423c-.018.028-.038.058-.059.087a1.911,1.911,0,0,1,.2.927,2.11,2.11,0,0,1-.22.8,1.48,1.48,0,0,1-1.4.818ZM16.9,11.9a.218.218,0,0,0-.04.135.227.227,0,0,0,0,.028v.006l0,.021a.055.055,0,0,0,.018.045.233.233,0,0,0,.082.044.83.83,0,0,0,.223.03h.03a.513.513,0,0,0,.354-.143l-.04-.044a.649.649,0,0,0-.378-.2l-.02,0c-.152,0-.2.044-.234.081" transform="translate(-3.362 -2.386)"/>
    <path id="Path_74943" data-name="Path 74943" d="M23.519,13.815a2.092,2.092,0,0,1-.219-.809,1.892,1.892,0,0,1,.2-.923c-.021-.029-.041-.059-.059-.087a1.6,1.6,0,0,1-.182-.423.118.118,0,0,1,.087-.142.116.116,0,0,1,.142.086s.01.041.035.109a1.346,1.346,0,0,0,.119.246l0,0a.81.81,0,0,1,.108-.1.833.833,0,0,1,.482-.195.507.507,0,0,1,.421.172.455.455,0,0,1,.089.28.394.394,0,0,1,0,.063.29.29,0,0,1-.089.2.445.445,0,0,1-.174.1,1.017,1.017,0,0,1-.3.041h-.029a.745.745,0,0,1-.479-.176,1.782,1.782,0,0,0-.134.737s0,.019,0,.057.01.093.024.161a1.835,1.835,0,0,0,.165.487,1.241,1.241,0,0,0,1.194.691.48.48,0,0,0,.052-.009A.115.115,0,0,0,25,14.383a2.372,2.372,0,0,1-.366-.294,1.212,1.212,0,0,1-.413-.817c0-.009,0-.033,0-.067a1.084,1.084,0,0,1,.056-.351A.584.584,0,0,1,24.6,12.5a.117.117,0,0,1,.153.066.119.119,0,0,1-.066.153.339.339,0,0,0-.191.218.848.848,0,0,0-.044.271.411.411,0,0,0,0,.05v.01c-.009.363.381.719.588.863.067.048.109.073.109.074l.023.017a.262.262,0,0,1,.089.182.191.191,0,0,1-.081.154.371.371,0,0,1-.113.053.668.668,0,0,1-.135.024h-.017a1.481,1.481,0,0,1-1.4-.818m.635-1.61h.024a.556.556,0,0,0,.305-.074.054.054,0,0,0,.018-.045l0-.021s0-.009,0-.034a.222.222,0,0,0-.04-.135c-.032-.038-.083-.08-.233-.081l-.022,0a.477.477,0,0,0-.075.016.645.645,0,0,0-.237.123.812.812,0,0,0-.1.1.522.522,0,0,0,.36.143" transform="translate(-4.855 -2.386)"/>
    <path id="Path_74944" data-name="Path 74944" d="M21.356,14.633h-.008a.52.52,0,0,1-.248-.077.192.192,0,0,1-.082-.154.263.263,0,0,1,.09-.182l.023-.017s.042-.025.108-.074a2.152,2.152,0,0,0,.246-.207.986.986,0,0,0,.343-.657v-.01a.394.394,0,0,0,0-.05.844.844,0,0,0-.044-.271.338.338,0,0,0-.191-.219.118.118,0,0,1,.087-.219.579.579,0,0,1,.327.358,1.06,1.06,0,0,1,.055.351c0,.032,0,.056,0,.066a1.207,1.207,0,0,1-.412.818,2.36,2.36,0,0,1-.367.3.457.457,0,0,0,.077.013,1.263,1.263,0,0,0,1.025-.435,1.671,1.671,0,0,0,.334-.742,1.6,1.6,0,0,0,.028-.214,1.8,1.8,0,0,0-.133-.741.736.736,0,0,1-.476.174H22.1a.714.714,0,0,1-.469-.14.292.292,0,0,1-.09-.2.536.536,0,0,1,0-.065.453.453,0,0,1,.089-.279.506.506,0,0,1,.423-.173.841.841,0,0,1,.479.195.925.925,0,0,1,.108.1,1.324,1.324,0,0,0,.122-.251,1.012,1.012,0,0,0,.035-.108.118.118,0,0,1,.142-.087.117.117,0,0,1,.086.142,1.559,1.559,0,0,1-.182.423c-.017.028-.037.058-.058.087a1.91,1.91,0,0,1,.2.927,2.075,2.075,0,0,1-.22.805,1.48,1.48,0,0,1-1.4.818Zm.46-2.736a.219.219,0,0,0-.04.135v.033l0,.021a.055.055,0,0,0,.018.045.227.227,0,0,0,.082.044.83.83,0,0,0,.223.03h.029a.517.517,0,0,0,.355-.143l-.04-.044a.651.651,0,0,0-.378-.2l-.02,0c-.152,0-.2.044-.234.081" transform="translate(-4.388 -2.386)"/>
    <path id="Path_74945" data-name="Path 74945" d="M28.465,13.815a2.079,2.079,0,0,1-.219-.809,1.9,1.9,0,0,1,.2-.923c-.021-.029-.041-.059-.059-.087a1.651,1.651,0,0,1-.183-.423.119.119,0,0,1,.088-.142.117.117,0,0,1,.142.086.983.983,0,0,0,.035.109,1.346,1.346,0,0,0,.119.246l0,0a.924.924,0,0,1,.108-.1.84.84,0,0,1,.481-.195.5.5,0,0,1,.421.172.457.457,0,0,1,.089.28.505.505,0,0,1,0,.063.291.291,0,0,1-.09.2.437.437,0,0,1-.173.1.993.993,0,0,1-.3.041h-.03a.749.749,0,0,1-.479-.176,1.768,1.768,0,0,0-.133.737.517.517,0,0,0,0,.057c0,.038.01.093.023.161a1.87,1.87,0,0,0,.165.487,1.24,1.24,0,0,0,1.192.691.533.533,0,0,0,.055-.008l.023-.006a2.372,2.372,0,0,1-.366-.294,1.208,1.208,0,0,1-.412-.817c0-.009,0-.033,0-.067a1.065,1.065,0,0,1,.056-.351.579.579,0,0,1,.327-.358.118.118,0,0,1,.153.066.119.119,0,0,1-.066.153.342.342,0,0,0-.192.218.844.844,0,0,0-.043.271c0,.033,0,.049,0,.049v.011c-.009.363.381.719.588.863.066.048.109.073.109.073l.022.018a.259.259,0,0,1,.09.182.2.2,0,0,1-.081.154.394.394,0,0,1-.114.053.668.668,0,0,1-.135.024h-.017a1.48,1.48,0,0,1-1.4-.818M29.1,12.2h.025a.558.558,0,0,0,.305-.074.057.057,0,0,0,.019-.045v-.021a.3.3,0,0,0,0-.034.227.227,0,0,0-.04-.135c-.032-.038-.084-.08-.233-.081l-.022,0a.49.49,0,0,0-.074.016.639.639,0,0,0-.237.123.765.765,0,0,0-.1.1.521.521,0,0,0,.359.143" transform="translate(-5.887 -2.386)"/>
    <path id="Path_74946" data-name="Path 74946" d="M26.3,14.632h-.008a.516.516,0,0,1-.248-.077.194.194,0,0,1-.083-.154.26.26,0,0,1,.091-.182l.023-.017s.041-.025.108-.074a2.155,2.155,0,0,0,.246-.207.989.989,0,0,0,.343-.656v-.01s0-.017,0-.05a.862.862,0,0,0-.043-.271.34.34,0,0,0-.191-.219.118.118,0,0,1,.087-.219.576.576,0,0,1,.326.358,1.044,1.044,0,0,1,.056.351c0,.032,0,.056,0,.066a1.212,1.212,0,0,1-.412.818,2.4,2.4,0,0,1-.367.3.723.723,0,0,0,.077.013,1.259,1.259,0,0,0,1.025-.436,1.647,1.647,0,0,0,.334-.741,1.6,1.6,0,0,0,.028-.214,1.782,1.782,0,0,0-.133-.741.735.735,0,0,1-.475.174h-.036a.717.717,0,0,1-.469-.14.294.294,0,0,1-.09-.2.517.517,0,0,1,0-.063.455.455,0,0,1,.09-.279A.5.5,0,0,1,27,11.58a.84.84,0,0,1,.479.195.991.991,0,0,1,.108.1,1.384,1.384,0,0,0,.123-.251c.025-.068.035-.108.035-.108a.118.118,0,1,1,.229.055A1.589,1.589,0,0,1,27.79,12c-.018.028-.037.058-.059.087a1.894,1.894,0,0,1,.2.927,2.079,2.079,0,0,1-.219.805,1.481,1.481,0,0,1-1.4.817Zm.46-2.735a.246.246,0,0,0-.039.163v.006l0,.021a.057.057,0,0,0,.02.045.211.211,0,0,0,.081.044.83.83,0,0,0,.223.03h.03a.513.513,0,0,0,.355-.143l-.04-.044a.653.653,0,0,0-.378-.2l-.02,0c-.153,0-.2.044-.235.081" transform="translate(-5.421 -2.386)"/>
    <path id="Path_74947" data-name="Path 74947" d="M147.245,26.473a1.537,1.537,0,0,0-.627-.558c2.647-1.95,2.089-4.11,2.089-4.11,0-2.717-3.134-2.787-3.134-2.787h-5.085V19.2s1.463.046,1.463.929V30.165c0,.883-1.463.929-1.463.929v.534h4.424v-.419s-1.672-.417-1.672-1.916l-.036-3.169h1.487a1.625,1.625,0,0,1,1.347.905s2.157,3.647,3.448,4.443a.582.582,0,0,0,.3.155h3.1V31.28c-2.577,0-5.641-4.807-5.641-4.807m-1.951-.906H143.2v-5.99h1.464a2.691,2.691,0,0,1,2.612,2.333s.244,3.657-1.985,3.657M177.332,31h-.82a1.728,1.728,0,0,1-1.791-1.533l-.009.028V20.99h-2.437v.156s1.238.038,1.238.775V30.3c0,.738-1.238.776-1.238.776v.446h6.362l.708-1.847-.373-.07A1.65,1.65,0,0,1,177.332,31m-19.476.1h-.767a1.612,1.612,0,0,1-1.638-1.34V26.159h2.369c.732,0,.905,1.115.905,1.115h.244l.209-1.881-.209-.139a.579.579,0,0,1-.522.383h-3V21.6h2.16c1.428,0,1.184.975,1.184.975l.279.14.226-1.585-.226-.227a.968.968,0,0,1-.627.161h-5.433v.157s1.237.04,1.237.786v8.49c0,.747-1.237.786-1.237.786v.347h6.06l.662-1.846-.35-.07a1.553,1.553,0,0,1-1.531,1.393m30.069-10.148-.092-.312-.255.093-.079.218h-7.553l-.079-.218-.255-.093-.092.312-.5,1.474.263.056a1.332,1.332,0,0,1,.65-.983H183.2V30.39c0,.747-1.237.786-1.237.786v.453h3.727v-.453s-1.238-.039-1.238-.786V21.5h3.074a1.332,1.332,0,0,1,.65.983l.263-.056-.5-1.474Zm8.312,0v.338c.976,0,.582.581.582.581a36.192,36.192,0,0,0-2.137,3.39c-.418.859-.626.627-.626.627-.632-1.114-2.647-4.226-2.647-4.226-.373-.464.371-.372.371-.372v-.338h-3.088V21.2c1.718,0,4.744,6.13,4.744,6.13v3.352c0,.748-1.238.786-1.238.786v.157h3.727V31.47s-1.238-.039-1.238-.786V27.006l1.018-1.95c2-3.645,3.505-3.761,3.505-3.761v-.338ZM169.263,29.1l-3.431-8.411h-.279l-3.483,9.126a2.176,2.176,0,0,1-1.986,1.427v.384h3.344v-.384s-1.15.036-.836-.836l1.018-2.717h3.825l1.217,2.891s.174.661-.487.661v.384H171.4v-.384s-1.114.21-2.142-2.142m-5.417-2.037,1.568-4.179,1.758,4.179Z" transform="translate(-29.332 -3.971)"/>
    <path id="Path_74948" data-name="Path 74948" d="M41.948,13.7a1.433,1.433,0,0,0-.65-1.287,1.416,1.416,0,0,0-.654-.207H30.361v.654H40.626a.806.806,0,0,1,.365.132.791.791,0,0,1,.308.724v.017l0,.019s0,.04.012.126c.022.255.067.888.067,1.8a29.035,29.035,0,0,1-2.564,11.994,22.809,22.809,0,0,1-13.61,12.068.9.9,0,0,1-.464.043h0a.375.375,0,0,1-.26-.2A.3.3,0,1,1,25,39.3a.206.206,0,0,1,.013.027h0l.5-.4a.885.885,0,0,0-.786-.537,1.033,1.033,0,0,0-.014,2.044h0a2.688,2.688,0,0,0,.5-.036c.017,0,.255-.069.511-.159A23.413,23.413,0,0,0,39.4,27.95,29.68,29.68,0,0,0,42.03,15.677c0-1.129-.068-1.847-.082-1.976" transform="translate(-4.977 -2.549)"/>
    <path id="Path_74949" data-name="Path 74949" d="M.73,13.7a1.433,1.433,0,0,1,.65-1.287,1.415,1.415,0,0,1,.654-.207H12.318v.654H2.052a.809.809,0,0,0-.365.132.791.791,0,0,0-.308.724v.017l0,.019s0,.04-.011.126c-.023.255-.068.888-.068,1.8A29.035,29.035,0,0,0,3.863,27.671a22.808,22.808,0,0,0,13.61,12.068.9.9,0,0,0,.464.043h0a.375.375,0,0,0,.26-.2.3.3,0,1,0-.521-.282c0,.009-.008.018-.012.027h0l-.5-.4a.883.883,0,0,1,.786-.537,1.033,1.033,0,0,1,.015,2.044h0a2.7,2.7,0,0,1-.5-.036c-.017,0-.255-.069-.511-.159A23.418,23.418,0,0,1,3.275,27.95,29.693,29.693,0,0,1,.648,15.677c0-1.129.069-1.847.082-1.976" transform="translate(-0.135 -2.549)"/>
    <path id="Path_74950" data-name="Path 74950" d="M17.409,51.68c-.1.134-.292.314-.351.314-.032,0-.04-.036-.016-.1.119-.328.218-.6.292-.827a1.45,1.45,0,0,0,.079-.412.249.249,0,0,0-.249-.267c-.386,0-.694.485-.923.859h-.016l.185-.568c.036-.107.052-.291-.13-.291a.963.963,0,0,0-.754.55.078.078,0,0,0,.071.074c.091-.1.252-.249.335-.249.047,0,.044.074.015.166-.059.2-.358,1.188-.378,1.253-.04.148.114.185.213.185s.162-.019.19-.083a7.881,7.881,0,0,1,.612-1.3c.138-.209.245-.3.3-.3.036,0,.051.028.051.065a.791.791,0,0,1-.051.217c-.1.324-.217.643-.335.967a.825.825,0,0,0-.059.25.189.189,0,0,0,.169.18,1.052,1.052,0,0,0,.829-.6c0-.061-.036-.1-.079-.088m1.4-1.294a.923.923,0,0,0-.62.267,1.7,1.7,0,0,0-.532,1.18c0,.3.138.532.423.532a.991.991,0,0,0,.861-.555.093.093,0,0,0-.079-.107.78.78,0,0,1-.513.324c-.119,0-.17-.129-.17-.254a.88.88,0,0,1,.02-.222c.32-.1.995-.319.995-.8a.366.366,0,0,0-.382-.369m-.206.7a.8.8,0,0,1-.375.263,1.719,1.719,0,0,1,.273-.639c.059-.078.118-.119.169-.119s.075.055.075.107a.764.764,0,0,1-.142.388m3.6.472-.036.055a1.526,1.526,0,0,1-.58.424v0c-.013.006-.028.009-.041.015a.883.883,0,0,1-.144.032l-.043,0-.045,0h-.1c-.288,0-.351-.032-.386-.111a.859.859,0,0,1,.055-.439l.15-.564c.032-.125.048-.138.15-.138h.261c.2,0,.244.036.221.259l-.011.116c.015.036.118.032.15,0,.036-.148.071-.314.118-.491s.1-.347.146-.49c-.013-.042-.111-.046-.15,0l-.052.111c-.1.222-.153.26-.359.26h-.26c-.1,0-.111-.009-.075-.139l.218-.8c.047-.176.059-.185.193-.185h.148a.675.675,0,0,1,.679.4c.193.3.234.123.234.123l-.141-.736H21.164c-.153,0-.355-.006-.54-.014a.114.114,0,0,0-.028.161l.095.019c.185.036.181.124.083.5l-.462,1.72c-.115.43-.146.462-.332.495l-.135.024c-.055.018-.059.134-.02.161.2-.009.375-.013.572-.013h.513c.162,0,.339,0,.5,0,.057,0,.111,0,.165,0v0h.187v0c.1,0,.2,0,.282.007a3.521,3.521,0,0,0,.3-.73.108.108,0,0,0-.157-.028m-6.814-.763a.838.838,0,0,0,.051-.2.211.211,0,0,0-.182-.2,1.239,1.239,0,0,0-.794.532.091.091,0,0,0,.064.111c.063-.07.284-.263.351-.263.019,0,.019.028.008.065l-.411,1.151a.635.635,0,0,0-.047.2c0,.055.079.185.181.185a1.174,1.174,0,0,0,.829-.551.087.087,0,0,0-.075-.111,1.191,1.191,0,0,1-.371.291c-.028,0-.032-.028-.016-.07Zm-.013-1.656a.354.354,0,0,0-.349.351.238.238,0,0,0,.206.286c.18.018.316-.14.335-.342.018-.175-.059-.28-.192-.294m-2.019.51c.047-.176.051-.185.186-.185h.259a.674.674,0,0,1,.678.4c.193.3.234.123.234.123l-.141-.736h-1.43c-.154,0-.351-.006-.54-.014a.12.12,0,0,0-.028.161l.094.019c.186.036.181.124.083.5l-.461,1.72c-.115.43-.146.462-.316.495l-.122.024c-.04.018-.044.134,0,.161.2-.009.375-.013.564-.013s.391,0,.612.013a.162.162,0,0,0,.028-.161l-.131-.019c-.2-.028-.2-.125-.1-.5l.165-.62c.032-.124.048-.138.146-.138h.309a.625.625,0,0,1,.119.009v-.121l.013.178c.126.016.152.091.154.305v.14c.025.051.153.035.188-.021.031-.184.052-.4.1-.623s.089-.446.135-.632c-.019-.051-.144-.047-.189.009l-.054.145c-.1.268-.157.326-.361.351v.01l-.041,0H13.2c-.1,0-.111-.009-.075-.135Zm18.629.3a.254.254,0,0,0-.086-.2.389.389,0,0,0-.263-.078H31.2v.93h.2v-.376h.222l.15.376h.21l-.172-.408a.25.25,0,0,0,.172-.245m-.378.131h-.2v-.26h.218c.106,0,.158.043.158.127s-.057.133-.172.133m-1.254.313a.622.622,0,0,0-.423.194.746.746,0,0,0-.221.5.733.733,0,0,0,.193.467l.13.161a.4.4,0,0,1,.116.236.14.14,0,0,1-.135.135c-.079,0-.157-.051-.313-.241-.047-.055-.078-.1-.122-.1-.1,0-.193.121-.193.268a.376.376,0,0,0,.391.357.681.681,0,0,0,.493-.2.664.664,0,0,0,.036-.984L30.15,51a.335.335,0,0,1-.1-.208.118.118,0,0,1,.1-.12c.078,0,.153.051.312.264a.129.129,0,0,0,.09.064c.06,0,.182-.06.182-.241a.376.376,0,0,0-.387-.369m-7.014,0a.62.62,0,0,0-.423.194.749.749,0,0,0-.221.5.733.733,0,0,0,.193.467l.131.161a.4.4,0,0,1,.115.236.14.14,0,0,1-.135.135c-.079,0-.158-.051-.312-.241-.047-.055-.079-.1-.122-.1-.1,0-.194.121-.194.268a.376.376,0,0,0,.391.357.68.68,0,0,0,.493-.2.663.663,0,0,0,.036-.984l-.15-.18a.34.34,0,0,1-.1-.208.119.119,0,0,1,.1-.12c.079,0,.155.051.313.264a.131.131,0,0,0,.09.064c.059,0,.182-.06.182-.241a.376.376,0,0,0-.387-.369M29.31,51.7a.777.777,0,0,1-.513.324c-.119,0-.169-.129-.169-.254a.886.886,0,0,1,.019-.222c.32-.1.995-.319.995-.8a.366.366,0,0,0-.382-.369.923.923,0,0,0-.62.267,1.7,1.7,0,0,0-.532,1.18c0,.3.138.532.423.532a.989.989,0,0,0,.86-.555.092.092,0,0,0-.079-.107m-.358-.995c.059-.078.118-.119.169-.119s.075.055.075.107a.764.764,0,0,1-.142.388.8.8,0,0,1-.375.263,1.719,1.719,0,0,1,.273-.639m3.191-1.147a.767.767,0,0,0-.566-.237.807.807,0,1,0,.8.808.784.784,0,0,0-.234-.57m-.1,1.049a.644.644,0,0,1-.93,0,.686.686,0,0,1,0-.958.63.63,0,0,1,.469-.2.621.621,0,0,1,.464.2.688.688,0,0,1,0,.957m-7.254,1.028c-.157.189-.347.356-.418.356-.044,0-.044-.041-.024-.106l.367-1.2h.4c.04-.032.084-.18.021-.241h-.363l.107-.42a.166.166,0,0,0-.146-.079.223.223,0,0,0-.135.037l-.284.444-.343.083c-.044.028-.071.138-.032.176h.292l-.359,1.226a.832.832,0,0,0-.044.25.2.2,0,0,0,.182.2,1.3,1.3,0,0,0,.861-.62c0-.059-.02-.1-.08-.106m3.073,0c-.157.189-.347.356-.418.356-.044,0-.044-.041-.024-.106l.366-1.2h.4c.04-.032.083-.18.021-.241h-.363l.106-.42a.164.164,0,0,0-.146-.079.223.223,0,0,0-.135.037l-.284.444-.343.083c-.044.028-.071.138-.032.176H27.3l-.359,1.226a.832.832,0,0,0-.044.25.2.2,0,0,0,.182.2,1.3,1.3,0,0,0,.861-.62c0-.059-.021-.1-.08-.106m-1.044.088a.928.928,0,0,1-.371.286c-.028,0-.024-.036-.008-.1.15-.513.323-1.026.474-1.461a.256.256,0,0,0-.146-.119.4.4,0,0,0-.146-.028.177.177,0,0,0-.107.032l-.091.217a.294.294,0,0,0-.174-.107,1.038,1.038,0,0,0-.7.4,2.255,2.255,0,0,0-.592,1.23.279.279,0,0,0,.241.287c.288,0,.668-.366.9-.726h.016l-.119.356a.727.727,0,0,0-.044.194.173.173,0,0,0,.153.18,1.087,1.087,0,0,0,.79-.541c0-.064-.035-.1-.075-.1m-.833-.166c-.118.184-.335.457-.422.457-.032,0-.052-.027-.056-.074V51.9a2.273,2.273,0,0,1,.392-1.007c.135-.2.2-.241.264-.241s.119.043.166.176a3.841,3.841,0,0,1-.344.73" transform="translate(-2.467 -10.259)"/>
    <path id="Path_74951" data-name="Path 74951" d="M22.611,32.818h-.143v0h-.218V29.14c0-.587.627-.628.627-.628v-.32H20.944v.32s.627.041.627.628v2.985c0,.586-.627.627-.627.627v.373h1.369v0h1.459l.137.142h.167l.339-1.625h-.3a1.442,1.442,0,0,1-1.5,1.173M34.2,19.764a3.382,3.382,0,0,0-5.044,4.475A3.382,3.382,0,0,0,34.2,19.764m-.908,4.3a2.494,2.494,0,0,1-3.439-.688,2.494,2.494,0,0,1,.175-3.5,2.494,2.494,0,0,1,3.441.688,2.5,2.5,0,0,1-.176,3.505M7.445,23.922V21.874a1.649,1.649,0,0,1,.318.381c.3.5,1.7,2.76,2.1,2.76h1.209v-.422l-.009-.051c-.813,0-2.252-2.456-2.252-2.456a2.327,2.327,0,0,0,1.46-1.825l-.009-.051a1.047,1.047,0,0,0,0-.133c-.033-1.161-.937-1.144-.937-1.144H8.988c-.036,0-.072,0-.112,0H5.757v.393s.775.051.775.775v3.682c0,.723-.775.774-.775.774v.46H8.183v-.449s-.737-.047-.737-.644m0-4.3a.887.887,0,0,1,.7-.257,1.215,1.215,0,0,1,1.064,1.181s.1,1.119-.862,1.157a1.683,1.683,0,0,1-.364-.074,1.4,1.4,0,0,1-.54-.4Zm16.407,1.81a2.27,2.27,0,0,0-2.5-2.5H17.425v.393s.775.051.775.775v3.682c0,.723-.775.774-.775.774v.46h2.839a3.476,3.476,0,0,0,3.588-3.588M19.2,19.734a3.25,3.25,0,0,1,1.451-.374,2.211,2.211,0,0,1,2.223,2.433c0,2.855-2.246,2.738-2.246,2.738a2.988,2.988,0,0,1-1.427-.468Zm8.6,5.459h.218l.445-2.043h-.4a1.859,1.859,0,0,1-1.965,1.474h-.351V22.191h1.708v-.514c-1.567,0-1.708-1.053-1.708-1.053V19.431h.468s1.521.07,1.521,1.287h.3V18.728h-.164l-.164.2H24.07v.393s.775.051.775.775v3.682c0,.723-.775.774-.775.774v.46h3.556Zm-11.253-5.43a3.252,3.252,0,0,0-4.592-.1,3.253,3.253,0,0,0-.451,4.571,3.253,3.253,0,0,0,4.593.1,3.254,3.254,0,0,0,.45-4.572m-.907,4.3a2.5,2.5,0,0,1-3.44-.688,2.494,2.494,0,0,1,.176-3.5,2.493,2.493,0,0,1,3.44.688,2.5,2.5,0,0,1-.176,3.505m12.314,4.14h-3.5l-.125-.161H24.21v1.582h.233c0-.968,1.161-1.024,1.161-1.024h.164v3.526a.624.624,0,0,1-.592.616v.366h.011v.013h1.977v-.013h.011v-.366a.624.624,0,0,1-.591-.616V28.6h.235s1.16.056,1.16,1.024h.233V28.046h-.125Zm-8.079,3.2-1.205-3.393h-.269l-1.6,4.129s-.292.656-.69.656v.316h1.729l-.009-.328s-.807.129-.591-.591l.258-.684H19.1l.411,1.135a.134.134,0,0,1-.146.146v.322h1.374v-.328s-.3.152-.854-1.381m-2.2-.374.631-1.673.608,1.673Zm-3.4,1.761h-.268V30.839h1.3v-.414c-1.2,0-1.3-.847-1.3-.847v-.961h.357s1.161.056,1.161,1.036h.232v-1.6h-.124l-.125.164H12.728v.317a.625.625,0,0,1,.591.623v2.962a.625.625,0,0,1-.591.623v.37h2.714l.138.145h.166l.339-1.644h-.3a1.447,1.447,0,0,1-1.5,1.186M10.81,30.751a1.883,1.883,0,0,0,1.184-1.48l-.007-.041a1.069,1.069,0,0,0,0-.108c-.028-.942-.76-.928-.76-.928h-.277c-.029,0-.059,0-.09,0H8.331v.32s.628.041.628.628v2.985c0,.586-.628.627-.628.627v.373H10.3v-.364s-.6-.038-.6-.522V30.58a1.3,1.3,0,0,1,.257.309c.247.406,1.377,2.238,1.707,2.238h.981v-.342l-.008-.042c-.66,0-1.827-1.991-1.827-1.991m-.672-.375a1.129,1.129,0,0,1-.438-.327v-1.3a.718.718,0,0,1,.57-.209.985.985,0,0,1,.862.958s.082.908-.7.938a1.471,1.471,0,0,1-.3-.061M30.961,28.6c.515,0,.55.117.55.117.41.41-.842,2.082-.842,2.082-.515-1.123-1.146-2.176-1.146-2.176h.164V28.2h-1.4v.358s.759.188,1.775,2.98v.59c0,.586-.628.627-.628.627v.373h1.935v-.373s-.628-.041-.628-.627v-.7l1.305-2.195s.468-.71.71-.71V28.2H30.961Z" transform="translate(-1.202 -3.91)"/>
    <path id="Path_74952" data-name="Path 74952" d="M29.553.348a4.184,4.184,0,0,0-2.381,1.023A3.308,3.308,0,0,0,25.318.758a3.591,3.591,0,0,0-3.58,3.357c0,1.813,1.041,2.282,1.041,2.282.187,0,0-.3,0-.3a2.977,2.977,0,0,1-.632-1.931c.41-3.3,3.171-3.17,3.171-3.17a2.8,2.8,0,0,1,1.63.56A10.7,10.7,0,0,0,24.6,4.466s-.028.053-.082.145a1.127,1.127,0,0,1-.538-.929,1.313,1.313,0,0,1,.691-1.088c.444-.117.373-.245.373-.245,0-.153-.315-.059-.315-.059a1.512,1.512,0,0,0-1.042,1.392,1.174,1.174,0,0,0,.7,1.151,10.485,10.485,0,0,1-3.175,3.444,10.5,10.5,0,0,1-3.176-3.444,1.173,1.173,0,0,0,.7-1.151A1.512,1.512,0,0,0,17.7,2.29s-.316-.094-.316.059c0,0-.07.128.375.245a1.313,1.313,0,0,1,.69,1.088,1.129,1.129,0,0,1-.539.929l-.082-.145a10.69,10.69,0,0,0-2.343-2.915,2.8,2.8,0,0,1,1.63-.56s2.761-.128,3.17,3.17a2.971,2.971,0,0,1-.632,1.931s-.187.3,0,.3c0,0,1.041-.468,1.041-2.282A3.591,3.591,0,0,0,17.112.758a3.31,3.31,0,0,0-1.855.613A4.179,4.179,0,0,0,12.876.348a1.569,1.569,0,0,0-1.708,1.544c0,2.036,2.223,2.164,2.223,2.164.421,0,.374-.21.374-.21,0-.081-.229-.052-.229-.052a1.828,1.828,0,0,1-1.9-1.9A1.241,1.241,0,0,1,12.845.68a3.28,3.28,0,0,1,2.113.988,2.105,2.105,0,0,0-.444,1.371S14.432,4.63,16.55,5c0,0,.055.009.149.017-.913.418-.445,1.079-.445,1.079a3.188,3.188,0,0,1,.757,1.684c0,.531-.43.531-.43.531a2.144,2.144,0,0,1-1.646-1.755c0-.39.242-.39.242-.39.78-.031,1.225,1.614,1.225,1.614.187,0,.164-.351.164-.351-.351-1.576-1.4-1.622-1.4-1.622-.655,0-.561.7-.561.7a2.218,2.218,0,0,0,2.059,2.06.794.794,0,0,0,.519-.175c.119.292.493.6,1.548.6a9.863,9.863,0,0,0,2.481-.345A9.854,9.854,0,0,0,23.7,9c1.055,0,1.429-.312,1.548-.6a.8.8,0,0,0,.52.175,2.219,2.219,0,0,0,2.059-2.06s.093-.7-.562-.7c0,0-1.045.046-1.4,1.622,0,0-.024.351.164.351,0,0,.445-1.645,1.224-1.614,0,0,.242,0,.242.39a2.144,2.144,0,0,1-1.646,1.755s-.429,0-.429-.531A3.183,3.183,0,0,1,26.176,6.1s.468-.661-.445-1.079c.093-.008.148-.017.148-.017C28,4.63,27.915,3.039,27.915,3.039a2.105,2.105,0,0,0-.444-1.371A3.28,3.28,0,0,1,29.584.68,1.241,1.241,0,0,1,30.795,1.89a1.828,1.828,0,0,1-1.9,1.9s-.228-.029-.228.052c0,0-.047.21.374.21,0,0,2.223-.128,2.223-2.164A1.568,1.568,0,0,0,29.553.348M22.727,7.665l-.009.009h0l.01-.009m-3.015.009h0l-.01-.009.01.009M15.028,2.629a1.189,1.189,0,0,1,.165-.737,10.642,10.642,0,0,1,1.677,2.282c.135.208.286.426.441.643h0a2.275,2.275,0,0,1-2.282-2.188M16.8,5.8c-.361-.6.293-.75.522-.782l.074-.009h.058c.747,1.025,1.572,2,1.572,2a5.543,5.543,0,0,0,.67.644A2.149,2.149,0,0,0,18.4,7.309a2.056,2.056,0,0,0-.861.184A6.642,6.642,0,0,0,16.8,5.8m2.1,2.953c-1.55,0-1.482-.59-1.468-.664a1.059,1.059,0,0,0,.067-.159c.222-.353.817-.347.817-.347a5.724,5.724,0,0,1,2.425.873,6.254,6.254,0,0,1-1.84.3m4.634,0a6.257,6.257,0,0,1-1.84-.3,5.725,5.725,0,0,1,2.426-.873s.594-.006.816.347A1.148,1.148,0,0,0,25,8.088c.013.074.082.664-1.468.664m2.1-2.953a6.693,6.693,0,0,0-.742,1.694,2.054,2.054,0,0,0-.861-.184,2.151,2.151,0,0,0-1.294.348,5.486,5.486,0,0,0,.67-.644s.825-.979,1.572-2h.059l.074.009c.229.032.883.178.522.782M27.4,2.629a2.274,2.274,0,0,1-2.281,2.188h0c.156-.218.306-.435.441-.643a10.675,10.675,0,0,1,1.677-2.282,1.185,1.185,0,0,1,.164.737" transform="translate(-2.332 -0.073)"/>
    <path id="Path_74953" data-name="Path 74953" d="M19.112,14.06a2.079,2.079,0,0,1-.218-.8,1.867,1.867,0,0,1,.2-.917.863.863,0,0,1-.058-.086,1.612,1.612,0,0,1-.182-.42.117.117,0,1,1,.227-.055s.01.041.035.108a1.328,1.328,0,0,0,.119.244l0,0a1.064,1.064,0,0,1,.108-.1.835.835,0,0,1,.478-.193.5.5,0,0,1,.418.172.446.446,0,0,1,.088.278.382.382,0,0,1,0,.063.291.291,0,0,1-.089.2.43.43,0,0,1-.172.1.977.977,0,0,1-.294.041h-.029a.743.743,0,0,1-.476-.174,1.759,1.759,0,0,0-.132.732s0,.018,0,.056a1.6,1.6,0,0,0,.024.159,1.8,1.8,0,0,0,.165.483,1.228,1.228,0,0,0,1.182.685.35.35,0,0,0,.054-.008l.025-.006a2.347,2.347,0,0,1-.365-.292,1.2,1.2,0,0,1-.409-.813.559.559,0,0,1,0-.065,1.063,1.063,0,0,1,.055-.348.573.573,0,0,1,.325-.356.117.117,0,0,1,.086.218.342.342,0,0,0-.191.218.827.827,0,0,0-.042.269c0,.032,0,.049,0,.049v.011c-.008.36.379.713.583.856.066.048.108.073.108.073l.023.017a.257.257,0,0,1,.089.18.193.193,0,0,1-.081.153.367.367,0,0,1-.112.053.733.733,0,0,1-.134.024H20.5a1.47,1.47,0,0,1-1.387-.812m.631-1.6h.024a.547.547,0,0,0,.3-.073.056.056,0,0,0,.019-.044v-.021a.328.328,0,0,0,0-.034.225.225,0,0,0-.04-.135c-.031-.037-.083-.079-.231-.081l-.022,0a.468.468,0,0,0-.074.015.657.657,0,0,0-.235.123.715.715,0,0,0-.1.1.516.516,0,0,0,.358.142" transform="translate(-3.935 -2.441)"/>
    <path id="Path_74954" data-name="Path 74954" d="M16.966,14.872h-.008a.51.51,0,0,1-.246-.077.187.187,0,0,1-.081-.153.257.257,0,0,1,.089-.181l.023-.017s.04-.025.108-.074a2.122,2.122,0,0,0,.244-.206.974.974,0,0,0,.34-.65V13.5s0-.017,0-.05a.81.81,0,0,0-.043-.269.339.339,0,0,0-.19-.218.117.117,0,0,1,.087-.217.571.571,0,0,1,.324.355,1.045,1.045,0,0,1,.055.348c0,.033,0,.056,0,.066a1.2,1.2,0,0,1-.409.812,2.34,2.34,0,0,1-.364.292.57.57,0,0,0,.076.014,1.251,1.251,0,0,0,1.017-.433,1.639,1.639,0,0,0,.332-.737,1.559,1.559,0,0,0,.028-.211,1.777,1.777,0,0,0-.132-.736.735.735,0,0,1-.472.174h-.035a.714.714,0,0,1-.466-.139.3.3,0,0,1-.089-.2.513.513,0,0,1,0-.063.456.456,0,0,1,.089-.278.5.5,0,0,1,.42-.171.828.828,0,0,1,.475.193.911.911,0,0,1,.108.1,1.311,1.311,0,0,0,.121-.25.915.915,0,0,0,.035-.108.117.117,0,0,1,.228.055,1.614,1.614,0,0,1-.181.42c-.017.028-.037.058-.059.086a1.88,1.88,0,0,1,.2.92,2.067,2.067,0,0,1-.218.8,1.467,1.467,0,0,1-1.386.813Zm.457-2.716a.232.232,0,0,0-.04.135.227.227,0,0,0,0,.028v0l0,.022a.052.052,0,0,0,.019.044.212.212,0,0,0,.081.043.789.789,0,0,0,.222.03h.03a.5.5,0,0,0,.351-.142c-.013-.016-.025-.03-.039-.044a.648.648,0,0,0-.375-.2l-.02,0c-.15,0-.2.044-.233.081" transform="translate(-3.472 -2.441)"/>
    <path id="Path_74955" data-name="Path 74955" d="M23.992,14.06a2.044,2.044,0,0,1-.218-.8,1.874,1.874,0,0,1,.2-.916c-.021-.028-.04-.059-.058-.087a1.583,1.583,0,0,1-.181-.419.117.117,0,1,1,.227-.055s.01.04.035.108a1.372,1.372,0,0,0,.118.244l0,0a.906.906,0,0,1,.107-.1.822.822,0,0,1,.479-.193.5.5,0,0,1,.418.172.456.456,0,0,1,.088.277.49.49,0,0,1,0,.063.285.285,0,0,1-.089.2.432.432,0,0,1-.172.1,1.031,1.031,0,0,1-.294.041h-.03a.737.737,0,0,1-.476-.174,1.763,1.763,0,0,0-.132.733s0,.017,0,.055a1.4,1.4,0,0,0,.024.16,1.833,1.833,0,0,0,.164.483,1.228,1.228,0,0,0,1.184.684.293.293,0,0,0,.052-.008l.024,0a2.359,2.359,0,0,1-.364-.293,1.208,1.208,0,0,1-.41-.81c0-.009,0-.033,0-.067a1.071,1.071,0,0,1,.056-.348.574.574,0,0,1,.324-.355.117.117,0,1,1,.086.218.338.338,0,0,0-.19.217.831.831,0,0,0-.043.269c0,.032,0,.049,0,.049v.011c-.009.36.379.714.583.857.066.047.108.072.108.072h0l.023.017a.261.261,0,0,1,.089.18.191.191,0,0,1-.081.153.371.371,0,0,1-.113.053.72.72,0,0,1-.133.024h-.018a1.468,1.468,0,0,1-1.387-.813m.63-1.6h.025a.533.533,0,0,0,.3-.073.052.052,0,0,0,.019-.044l0-.021a.241.241,0,0,0,0-.034.216.216,0,0,0-.039-.134c-.031-.038-.083-.079-.232-.081a.089.089,0,0,0-.021,0,.614.614,0,0,0-.074.016.655.655,0,0,0-.236.123.8.8,0,0,0-.1.1.514.514,0,0,0,.357.142" transform="translate(-4.954 -2.441)"/>
    <path id="Path_74956" data-name="Path 74956" d="M21.846,14.872h-.008a.514.514,0,0,1-.246-.076.191.191,0,0,1-.082-.153.263.263,0,0,1,.089-.18l.023-.017s.041-.025.108-.073a2.221,2.221,0,0,0,.244-.206.974.974,0,0,0,.339-.651v-.009s0-.017,0-.051a.831.831,0,0,0-.043-.269.338.338,0,0,0-.19-.217.117.117,0,1,1,.086-.218.57.57,0,0,1,.324.356,1.046,1.046,0,0,1,.056.347c0,.033,0,.056,0,.066a1.206,1.206,0,0,1-.409.812,2.355,2.355,0,0,1-.365.293.452.452,0,0,0,.076.013,1.253,1.253,0,0,0,1.017-.432,1.646,1.646,0,0,0,.331-.737,1.576,1.576,0,0,0,.028-.211,1.761,1.761,0,0,0-.131-.736.732.732,0,0,1-.472.173h-.035a.713.713,0,0,1-.467-.139.3.3,0,0,1-.089-.2.536.536,0,0,1,0-.065.454.454,0,0,1,.089-.277.5.5,0,0,1,.42-.172.836.836,0,0,1,.476.193.848.848,0,0,1,.107.1,1.342,1.342,0,0,0,.122-.249.849.849,0,0,0,.034-.108.117.117,0,0,1,.228.055,1.594,1.594,0,0,1-.181.42c-.017.028-.037.058-.058.086a1.9,1.9,0,0,1,.2.92,2.057,2.057,0,0,1-.218.8,1.467,1.467,0,0,1-1.386.813Zm.457-2.715a.219.219,0,0,0-.04.134v.033l0,.021a.052.052,0,0,0,.019.044.211.211,0,0,0,.081.044.781.781,0,0,0,.222.029h.029a.508.508,0,0,0,.352-.142c-.013-.015-.025-.03-.039-.044a.655.655,0,0,0-.375-.2l-.02,0c-.151,0-.2.044-.233.081" transform="translate(-4.491 -2.441)"/>
    <path id="Path_74957" data-name="Path 74957" d="M28.9,14.06a2.047,2.047,0,0,1-.218-.8,1.874,1.874,0,0,1,.2-.916c-.021-.028-.04-.059-.058-.087a1.583,1.583,0,0,1-.181-.419.117.117,0,1,1,.227-.055s.01.04.035.108a1.291,1.291,0,0,0,.118.244l0,.006a.906.906,0,0,1,.107-.1.846.846,0,0,1,.478-.194.5.5,0,0,1,.418.172.447.447,0,0,1,.089.277.479.479,0,0,1,0,.063.288.288,0,0,1-.089.2.438.438,0,0,1-.172.1,1,1,0,0,1-.294.041h-.03a.745.745,0,0,1-.476-.174,1.765,1.765,0,0,0-.131.733s0,.017,0,.056a1.445,1.445,0,0,0,.024.159,1.833,1.833,0,0,0,.164.483,1.231,1.231,0,0,0,1.182.685.533.533,0,0,0,.055-.008l.024-.006a2.322,2.322,0,0,1-.364-.293,1.2,1.2,0,0,1-.41-.81c0-.009,0-.033,0-.067a1.071,1.071,0,0,1,.056-.348.574.574,0,0,1,.324-.355.117.117,0,1,1,.086.218.34.34,0,0,0-.19.217.831.831,0,0,0-.043.269c0,.033,0,.049,0,.049v.011c-.008.36.38.714.584.857.066.047.108.072.108.072l.022.018a.259.259,0,0,1,.09.18.192.192,0,0,1-.081.153.376.376,0,0,1-.112.053.725.725,0,0,1-.135.024h-.017A1.468,1.468,0,0,1,28.9,14.06m.63-1.6h.025a.533.533,0,0,0,.3-.073.052.052,0,0,0,.019-.044l0-.021s0-.009,0-.034a.22.22,0,0,0-.039-.135c-.031-.037-.083-.078-.231-.08l-.023,0a.608.608,0,0,0-.074.016.655.655,0,0,0-.236.123.8.8,0,0,0-.1.1.515.515,0,0,0,.357.142" transform="translate(-5.979 -2.441)"/>
    <path id="Path_74958" data-name="Path 74958" d="M26.755,14.871h-.008a.514.514,0,0,1-.247-.077.19.19,0,0,1-.081-.153.26.26,0,0,1,.089-.181l.023-.017s.041-.025.108-.074a2.057,2.057,0,0,0,.244-.206.974.974,0,0,0,.339-.65V13.5s0-.017,0-.05a.854.854,0,0,0-.043-.269.343.343,0,0,0-.19-.218.117.117,0,1,1,.086-.217.571.571,0,0,1,.324.355,1.05,1.05,0,0,1,.056.348c0,.032,0,.055,0,.065a1.207,1.207,0,0,1-.41.813,2.3,2.3,0,0,1-.364.292.452.452,0,0,0,.076.013,1.25,1.25,0,0,0,1.017-.432,1.647,1.647,0,0,0,.331-.736,1.56,1.56,0,0,0,.028-.212A1.764,1.764,0,0,0,28,12.522a.733.733,0,0,1-.471.174H27.5a.714.714,0,0,1-.466-.14.292.292,0,0,1-.089-.2.5.5,0,0,1,0-.063.454.454,0,0,1,.089-.278.5.5,0,0,1,.42-.171.826.826,0,0,1,.476.193.972.972,0,0,1,.107.1,1.32,1.32,0,0,0,.122-.25.805.805,0,0,0,.034-.108.117.117,0,0,1,.228.055,1.582,1.582,0,0,1-.181.42c-.017.028-.037.058-.058.086a1.9,1.9,0,0,1,.2.92,2.071,2.071,0,0,1-.217.8,1.47,1.47,0,0,1-1.387.812Zm.457-2.715a.221.221,0,0,0-.04.135.264.264,0,0,0,0,.028v.006l0,.021a.056.056,0,0,0,.02.044.2.2,0,0,0,.08.043.793.793,0,0,0,.222.03h.03a.508.508,0,0,0,.352-.142c-.013-.016-.025-.03-.04-.044a.647.647,0,0,0-.374-.2l-.02,0c-.151,0-.2.044-.233.081" transform="translate(-5.516 -2.441)"/>
    <path id="Path_74959" data-name="Path 74959" d="M88,20.955H81.96v.157s1.237.039,1.237.786v8.491c0,.746-1.237.786-1.237.786v.452h5.688s5.591,0,5.591-5.59A4.958,4.958,0,0,0,88,20.955M87.543,31.07H86.22s-1.638-.07-1.638-1.393V21.77s.035-.418,1.115-.418h1.393s4.737.627,4.737,4.737c0,0,.348,4.981-4.284,4.981m22.186-10.432a5.694,5.694,0,0,0-5.839,5.538,5.847,5.847,0,0,0,11.678,0,5.694,5.694,0,0,0-5.839-5.538m0,10.53c-2.4,0-4.354-2.234-4.354-4.992s1.95-4.993,4.354-4.993,4.353,2.235,4.353,4.993-1.949,4.992-4.353,4.992m-46.183-4.7a1.522,1.522,0,0,0-.627-.557c2.647-1.951,2.09-4.11,2.09-4.11,0-2.716-3.135-2.787-3.135-2.787H56.789V19.2s1.463.046,1.463.928V30.164c0,.883-1.463.929-1.463.929v.534h4.423v-.418s-1.671-.418-1.671-1.916l-.035-3.17h1.487a1.626,1.626,0,0,1,1.346.905s2.156,3.647,3.447,4.443a.58.58,0,0,0,.3.154h3.1v-.348c-2.578,0-5.643-4.807-5.643-4.807m-1.951-.905H59.506V19.576h1.462a2.691,2.691,0,0,1,2.613,2.333s.244,3.658-1.986,3.658m12.992-4.929a5.7,5.7,0,0,0-5.839,5.538,5.848,5.848,0,0,0,11.679,0,5.7,5.7,0,0,0-5.84-5.538m0,10.53c-2.4,0-4.353-2.234-4.353-4.992s1.949-4.993,4.353-4.993,4.354,2.235,4.354,4.993-1.95,4.992-4.354,4.992m25.5-.168h-.767a1.613,1.613,0,0,1-1.637-1.34V26.053h2.369c.731,0,.906,1.115.906,1.115h.244l.209-1.881-.209-.139a.58.58,0,0,1-.523.383h-3v-4.04h2.16c1.428,0,1.184.975,1.184.975l.279.14.227-1.585L101.3,20.8a.965.965,0,0,1-.627.16H95.242v.157s1.237.039,1.237.786v8.491c0,.746-1.237.786-1.237.786v.452H101.3l.662-1.95-.348-.07A1.555,1.555,0,0,1,100.083,31" transform="translate(-11.857 -3.971)"/>
  </g>
</svg>
